<mxfile host="app.diagrams.net" agent="Mozilla/5.0 (Windows NT 10.0; Win64; x64) AppleWebKit/537.36 (KHTML, like Gecko) Chrome/131.0.0.0 Safari/537.36" version="25.0.3">
  <diagram id="C5RBs43oDa-KdzZeNtuy" name="Page-1">
    <mxGraphModel dx="1843" dy="796" grid="1" gridSize="10" guides="1" tooltips="1" connect="1" arrows="1" fold="1" page="1" pageScale="1" pageWidth="827" pageHeight="1169" math="0" shadow="0">
      <root>
        <mxCell id="WIyWlLk6GJQsqaUBKTNV-0" />
        <mxCell id="WIyWlLk6GJQsqaUBKTNV-1" parent="WIyWlLk6GJQsqaUBKTNV-0" />
        <mxCell id="2YqjTu3L9kQ1eXakfIt_-0" value="Home Page" style="swimlane;whiteSpace=wrap;html=1;fillColor=#FFFFFF;" parent="WIyWlLk6GJQsqaUBKTNV-1" vertex="1">
          <mxGeometry x="70" y="60" width="160" height="1270" as="geometry" />
        </mxCell>
        <mxCell id="2YqjTu3L9kQ1eXakfIt_-2" value="" style="rounded=1;whiteSpace=wrap;html=1;fillColor=#DCDCDC;" parent="2YqjTu3L9kQ1eXakfIt_-0" vertex="1">
          <mxGeometry x="20.3" y="180" width="120" height="110" as="geometry" />
        </mxCell>
        <UserObject label="&lt;font style=&quot;font-size: 10px;&quot;&gt;Post&lt;/font&gt;" treeRoot="1" id="2YqjTu3L9kQ1eXakfIt_-3">
          <mxCell style="whiteSpace=wrap;html=1;align=center;treeFolding=1;treeMoving=1;newEdgeStyle={&quot;edgeStyle&quot;:&quot;elbowEdgeStyle&quot;,&quot;startArrow&quot;:&quot;none&quot;,&quot;endArrow&quot;:&quot;none&quot;};" parent="2YqjTu3L9kQ1eXakfIt_-0" vertex="1">
            <mxGeometry x="55.3" y="260" width="50" height="20" as="geometry" />
          </mxCell>
        </UserObject>
        <mxCell id="2YqjTu3L9kQ1eXakfIt_-4" value="&lt;font style=&quot;font-size: 14px;&quot;&gt;Post List&lt;/font&gt;" style="text;html=1;align=center;verticalAlign=middle;whiteSpace=wrap;rounded=0;" parent="2YqjTu3L9kQ1eXakfIt_-0" vertex="1">
          <mxGeometry x="50.3" y="180" width="60" height="30" as="geometry" />
        </mxCell>
        <mxCell id="2YqjTu3L9kQ1eXakfIt_-5" value="" style="endArrow=none;html=1;rounded=0;entryX=1;entryY=0.331;entryDx=0;entryDy=0;entryPerimeter=0;exitX=-0.005;exitY=0.331;exitDx=0;exitDy=0;exitPerimeter=0;" parent="2YqjTu3L9kQ1eXakfIt_-0" edge="1">
          <mxGeometry width="50" height="50" relative="1" as="geometry">
            <mxPoint x="20.299999999999933" y="209.99999999999997" as="sourcePoint" />
            <mxPoint x="140.89999999999995" y="209.99999999999997" as="targetPoint" />
          </mxGeometry>
        </mxCell>
        <mxCell id="2YqjTu3L9kQ1eXakfIt_-12" value="" style="line;strokeWidth=2;html=1;fillColor=#BBBBBB;strokeColor=#969696;" parent="2YqjTu3L9kQ1eXakfIt_-0" vertex="1">
          <mxGeometry x="57.5" y="220" width="45" height="10" as="geometry" />
        </mxCell>
        <mxCell id="2YqjTu3L9kQ1eXakfIt_-13" value="" style="line;strokeWidth=2;html=1;fillColor=#BBBBBB;strokeColor=#969696;" parent="2YqjTu3L9kQ1eXakfIt_-0" vertex="1">
          <mxGeometry x="57.500000000000014" y="230" width="45" height="10" as="geometry" />
        </mxCell>
        <mxCell id="2YqjTu3L9kQ1eXakfIt_-14" value="" style="line;strokeWidth=2;html=1;fillColor=#BBBBBB;strokeColor=#969696;" parent="2YqjTu3L9kQ1eXakfIt_-0" vertex="1">
          <mxGeometry x="57.80000000000001" y="240" width="45" height="10" as="geometry" />
        </mxCell>
        <mxCell id="2YqjTu3L9kQ1eXakfIt_-44" value="" style="rounded=1;whiteSpace=wrap;html=1;fillColor=#DCDCDC;" parent="2YqjTu3L9kQ1eXakfIt_-0" vertex="1">
          <mxGeometry x="20" y="310" width="120" height="130" as="geometry" />
        </mxCell>
        <mxCell id="2YqjTu3L9kQ1eXakfIt_-46" value="&lt;font style=&quot;font-size: 14px;&quot;&gt;Profile&lt;/font&gt;" style="text;html=1;align=center;verticalAlign=middle;whiteSpace=wrap;rounded=0;" parent="2YqjTu3L9kQ1eXakfIt_-0" vertex="1">
          <mxGeometry x="46.69999999999999" y="310" width="66" height="30" as="geometry" />
        </mxCell>
        <mxCell id="2YqjTu3L9kQ1eXakfIt_-47" value="" style="endArrow=none;html=1;rounded=0;entryX=1;entryY=0.331;entryDx=0;entryDy=0;entryPerimeter=0;exitX=-0.005;exitY=0.331;exitDx=0;exitDy=0;exitPerimeter=0;" parent="2YqjTu3L9kQ1eXakfIt_-0" edge="1">
          <mxGeometry width="50" height="50" relative="1" as="geometry">
            <mxPoint x="20.000000000000114" y="340" as="sourcePoint" />
            <mxPoint x="140.60000000000014" y="340" as="targetPoint" />
          </mxGeometry>
        </mxCell>
        <mxCell id="2YqjTu3L9kQ1eXakfIt_-49" value="" style="shape=image;html=1;verticalAlign=top;verticalLabelPosition=bottom;labelBackgroundColor=#ffffff;imageAspect=0;aspect=fixed;image=https://cdn4.iconfinder.com/data/icons/48-bubbles/48/31.ID-Horizontal-128.png" parent="2YqjTu3L9kQ1eXakfIt_-0" vertex="1">
          <mxGeometry x="57.499999999999986" y="343" width="44" height="44" as="geometry" />
        </mxCell>
        <mxCell id="2YqjTu3L9kQ1eXakfIt_-50" value="" style="rounded=0;whiteSpace=wrap;html=1;" parent="2YqjTu3L9kQ1eXakfIt_-0" vertex="1">
          <mxGeometry x="40" y="390" width="80" height="40" as="geometry" />
        </mxCell>
        <mxCell id="2YqjTu3L9kQ1eXakfIt_-51" value="&lt;font style=&quot;font-size: 10px;&quot;&gt;User&lt;/font&gt;" style="text;html=1;align=center;verticalAlign=middle;whiteSpace=wrap;rounded=0;" parent="2YqjTu3L9kQ1eXakfIt_-0" vertex="1">
          <mxGeometry x="65.3" y="390" width="30" height="15" as="geometry" />
        </mxCell>
        <mxCell id="2YqjTu3L9kQ1eXakfIt_-52" value="" style="rounded=0;whiteSpace=wrap;html=1;" parent="2YqjTu3L9kQ1eXakfIt_-0" vertex="1">
          <mxGeometry x="56.72" y="410" width="47.15" height="15" as="geometry" />
        </mxCell>
        <mxCell id="2YqjTu3L9kQ1eXakfIt_-53" value="&lt;font style=&quot;font-size: 9px;&quot;&gt;uid = ?&lt;/font&gt;" style="text;html=1;align=center;verticalAlign=middle;whiteSpace=wrap;rounded=0;" parent="2YqjTu3L9kQ1eXakfIt_-0" vertex="1">
          <mxGeometry x="65" y="412.5" width="30" height="10" as="geometry" />
        </mxCell>
        <mxCell id="2YqjTu3L9kQ1eXakfIt_-120" value="" style="rounded=1;whiteSpace=wrap;html=1;fillColor=#DCDCDC;" parent="2YqjTu3L9kQ1eXakfIt_-0" vertex="1">
          <mxGeometry x="19.39999999999999" y="460" width="120" height="110" as="geometry" />
        </mxCell>
        <UserObject label="&lt;font style=&quot;font-size: 10px;&quot;&gt;Group&lt;/font&gt;" treeRoot="1" id="2YqjTu3L9kQ1eXakfIt_-121">
          <mxCell style="whiteSpace=wrap;html=1;align=center;treeFolding=1;treeMoving=1;newEdgeStyle={&quot;edgeStyle&quot;:&quot;elbowEdgeStyle&quot;,&quot;startArrow&quot;:&quot;none&quot;,&quot;endArrow&quot;:&quot;none&quot;};" parent="2YqjTu3L9kQ1eXakfIt_-0" vertex="1">
            <mxGeometry x="54.400000000000006" y="540" width="50" height="20" as="geometry" />
          </mxCell>
        </UserObject>
        <mxCell id="2YqjTu3L9kQ1eXakfIt_-122" value="&lt;font style=&quot;font-size: 14px;&quot;&gt;Group List&lt;/font&gt;" style="text;html=1;align=center;verticalAlign=middle;whiteSpace=wrap;rounded=0;" parent="2YqjTu3L9kQ1eXakfIt_-0" vertex="1">
          <mxGeometry x="45" y="460" width="70.6" height="30" as="geometry" />
        </mxCell>
        <mxCell id="2YqjTu3L9kQ1eXakfIt_-123" value="" style="endArrow=none;html=1;rounded=0;entryX=1;entryY=0.331;entryDx=0;entryDy=0;entryPerimeter=0;exitX=-0.005;exitY=0.331;exitDx=0;exitDy=0;exitPerimeter=0;" parent="2YqjTu3L9kQ1eXakfIt_-0" edge="1">
          <mxGeometry width="50" height="50" relative="1" as="geometry">
            <mxPoint x="19.39999999999992" y="490" as="sourcePoint" />
            <mxPoint x="139.99999999999994" y="490" as="targetPoint" />
          </mxGeometry>
        </mxCell>
        <mxCell id="2YqjTu3L9kQ1eXakfIt_-124" value="" style="line;strokeWidth=2;html=1;fillColor=#BBBBBB;strokeColor=#969696;" parent="2YqjTu3L9kQ1eXakfIt_-0" vertex="1">
          <mxGeometry x="56.599999999999994" y="500" width="45" height="10" as="geometry" />
        </mxCell>
        <mxCell id="2YqjTu3L9kQ1eXakfIt_-125" value="" style="line;strokeWidth=2;html=1;fillColor=#BBBBBB;strokeColor=#969696;" parent="2YqjTu3L9kQ1eXakfIt_-0" vertex="1">
          <mxGeometry x="56.599999999999994" y="510" width="45" height="10" as="geometry" />
        </mxCell>
        <mxCell id="2YqjTu3L9kQ1eXakfIt_-126" value="" style="line;strokeWidth=2;html=1;fillColor=#BBBBBB;strokeColor=#969696;" parent="2YqjTu3L9kQ1eXakfIt_-0" vertex="1">
          <mxGeometry x="56.900000000000006" y="520" width="45" height="10" as="geometry" />
        </mxCell>
        <mxCell id="2YqjTu3L9kQ1eXakfIt_-142" value="" style="rounded=1;whiteSpace=wrap;html=1;fillColor=#DCDCDC;" parent="2YqjTu3L9kQ1eXakfIt_-0" vertex="1">
          <mxGeometry x="18.799999999999997" y="590" width="120" height="110" as="geometry" />
        </mxCell>
        <UserObject label="&lt;font style=&quot;font-size: 10px;&quot;&gt;User&lt;/font&gt;" treeRoot="1" id="2YqjTu3L9kQ1eXakfIt_-143">
          <mxCell style="whiteSpace=wrap;html=1;align=center;treeFolding=1;treeMoving=1;newEdgeStyle={&quot;edgeStyle&quot;:&quot;elbowEdgeStyle&quot;,&quot;startArrow&quot;:&quot;none&quot;,&quot;endArrow&quot;:&quot;none&quot;};" parent="2YqjTu3L9kQ1eXakfIt_-0" vertex="1">
            <mxGeometry x="53.80000000000001" y="670" width="50" height="20" as="geometry" />
          </mxCell>
        </UserObject>
        <mxCell id="2YqjTu3L9kQ1eXakfIt_-144" value="&lt;font style=&quot;font-size: 14px;&quot;&gt;User List&lt;/font&gt;" style="text;html=1;align=center;verticalAlign=middle;whiteSpace=wrap;rounded=0;" parent="2YqjTu3L9kQ1eXakfIt_-0" vertex="1">
          <mxGeometry x="44.400000000000006" y="590" width="70.6" height="30" as="geometry" />
        </mxCell>
        <mxCell id="2YqjTu3L9kQ1eXakfIt_-145" value="" style="endArrow=none;html=1;rounded=0;entryX=1;entryY=0.331;entryDx=0;entryDy=0;entryPerimeter=0;exitX=-0.005;exitY=0.331;exitDx=0;exitDy=0;exitPerimeter=0;" parent="2YqjTu3L9kQ1eXakfIt_-0" edge="1">
          <mxGeometry width="50" height="50" relative="1" as="geometry">
            <mxPoint x="18.799999999999926" y="620" as="sourcePoint" />
            <mxPoint x="139.39999999999995" y="620" as="targetPoint" />
          </mxGeometry>
        </mxCell>
        <mxCell id="2YqjTu3L9kQ1eXakfIt_-146" value="" style="line;strokeWidth=2;html=1;fillColor=#BBBBBB;strokeColor=#969696;" parent="2YqjTu3L9kQ1eXakfIt_-0" vertex="1">
          <mxGeometry x="56" y="630" width="45" height="10" as="geometry" />
        </mxCell>
        <mxCell id="2YqjTu3L9kQ1eXakfIt_-147" value="" style="line;strokeWidth=2;html=1;fillColor=#BBBBBB;strokeColor=#969696;" parent="2YqjTu3L9kQ1eXakfIt_-0" vertex="1">
          <mxGeometry x="56" y="640" width="45" height="10" as="geometry" />
        </mxCell>
        <mxCell id="2YqjTu3L9kQ1eXakfIt_-148" value="" style="line;strokeWidth=2;html=1;fillColor=#BBBBBB;strokeColor=#969696;" parent="2YqjTu3L9kQ1eXakfIt_-0" vertex="1">
          <mxGeometry x="56.30000000000001" y="650" width="45" height="10" as="geometry" />
        </mxCell>
        <mxCell id="teCfyKoSKIW5aT6tf8ac-0" value="" style="rounded=1;whiteSpace=wrap;html=1;fillColor=#DCDCDC;" vertex="1" parent="2YqjTu3L9kQ1eXakfIt_-0">
          <mxGeometry x="18.20000000000016" y="740" width="120" height="110" as="geometry" />
        </mxCell>
        <UserObject label="&lt;font style=&quot;font-size: 10px;&quot;&gt;User&lt;/font&gt;" treeRoot="1" id="teCfyKoSKIW5aT6tf8ac-1">
          <mxCell style="whiteSpace=wrap;html=1;align=center;treeFolding=1;treeMoving=1;newEdgeStyle={&quot;edgeStyle&quot;:&quot;elbowEdgeStyle&quot;,&quot;startArrow&quot;:&quot;none&quot;,&quot;endArrow&quot;:&quot;none&quot;};" vertex="1" parent="2YqjTu3L9kQ1eXakfIt_-0">
            <mxGeometry x="52.90000000000015" y="820" width="50" height="20" as="geometry" />
          </mxCell>
        </UserObject>
        <mxCell id="teCfyKoSKIW5aT6tf8ac-2" value="&lt;font style=&quot;font-size: 14px;&quot;&gt;Search Users&lt;/font&gt;" style="text;html=1;align=center;verticalAlign=middle;whiteSpace=wrap;rounded=0;" vertex="1" parent="2YqjTu3L9kQ1eXakfIt_-0">
          <mxGeometry x="27.9" y="740" width="100" height="30" as="geometry" />
        </mxCell>
        <mxCell id="teCfyKoSKIW5aT6tf8ac-3" value="" style="endArrow=none;html=1;rounded=0;entryX=1;entryY=0.331;entryDx=0;entryDy=0;entryPerimeter=0;exitX=-0.005;exitY=0.331;exitDx=0;exitDy=0;exitPerimeter=0;" edge="1" parent="2YqjTu3L9kQ1eXakfIt_-0">
          <mxGeometry width="50" height="50" relative="1" as="geometry">
            <mxPoint x="18.200000000000102" y="770" as="sourcePoint" />
            <mxPoint x="138.80000000000013" y="770" as="targetPoint" />
          </mxGeometry>
        </mxCell>
        <mxCell id="teCfyKoSKIW5aT6tf8ac-4" value="" style="shape=image;html=1;verticalAlign=top;verticalLabelPosition=bottom;labelBackgroundColor=#ffffff;imageAspect=0;aspect=fixed;image=https://cdn2.iconfinder.com/data/icons/essential-web-3/50/edit-document-note-writing-review-128.png" vertex="1" parent="2YqjTu3L9kQ1eXakfIt_-0">
          <mxGeometry x="61.69999999999999" y="778.5" width="33" height="33" as="geometry" />
        </mxCell>
        <mxCell id="teCfyKoSKIW5aT6tf8ac-6" value="" style="html=1;labelBackgroundColor=#ffffff;jettySize=auto;orthogonalLoop=1;fontSize=14;rounded=0;jumpStyle=gap;edgeStyle=orthogonalEdgeStyle;startArrow=oval;endArrow=block;strokeWidth=2;startFill=1;endFill=1;sourcePerimeterSpacing=3;targetPerimeterSpacing=3;exitX=0.5;exitY=0;exitDx=0;exitDy=0;strokeColor=#B0B0B0;" edge="1" parent="2YqjTu3L9kQ1eXakfIt_-0" source="teCfyKoSKIW5aT6tf8ac-2">
          <mxGeometry width="48" height="48" relative="1" as="geometry">
            <mxPoint x="115.6" y="710" as="sourcePoint" />
            <mxPoint x="78" y="700" as="targetPoint" />
          </mxGeometry>
        </mxCell>
        <mxCell id="teCfyKoSKIW5aT6tf8ac-137" value="" style="rounded=1;whiteSpace=wrap;html=1;fillColor=#DCDCDC;" vertex="1" parent="2YqjTu3L9kQ1eXakfIt_-0">
          <mxGeometry x="19.4" y="870" width="120" height="100" as="geometry" />
        </mxCell>
        <mxCell id="teCfyKoSKIW5aT6tf8ac-139" value="&lt;font style=&quot;font-size: 14px;&quot;&gt;Picastlo GUI&lt;/font&gt;" style="text;html=1;align=center;verticalAlign=middle;whiteSpace=wrap;rounded=0;" vertex="1" parent="2YqjTu3L9kQ1eXakfIt_-0">
          <mxGeometry x="29.10000000000001" y="870" width="100" height="30" as="geometry" />
        </mxCell>
        <mxCell id="teCfyKoSKIW5aT6tf8ac-140" value="" style="endArrow=none;html=1;rounded=0;entryX=1;entryY=0.331;entryDx=0;entryDy=0;entryPerimeter=0;exitX=-0.005;exitY=0.331;exitDx=0;exitDy=0;exitPerimeter=0;" edge="1" parent="2YqjTu3L9kQ1eXakfIt_-0">
          <mxGeometry width="50" height="50" relative="1" as="geometry">
            <mxPoint x="19.400000000000105" y="900" as="sourcePoint" />
            <mxPoint x="140.0000000000001" y="900" as="targetPoint" />
          </mxGeometry>
        </mxCell>
        <mxCell id="teCfyKoSKIW5aT6tf8ac-142" value="" style="html=1;verticalLabelPosition=bottom;align=center;labelBackgroundColor=#ffffff;verticalAlign=top;strokeWidth=2;strokeColor=#0080F0;shadow=0;dashed=0;shape=mxgraph.ios7.icons.link;" vertex="1" parent="2YqjTu3L9kQ1eXakfIt_-0">
          <mxGeometry x="56.6" y="910" width="46.8" height="50" as="geometry" />
        </mxCell>
        <mxCell id="teCfyKoSKIW5aT6tf8ac-168" value="" style="rounded=1;whiteSpace=wrap;html=1;fillColor=#DCDCDC;" vertex="1" parent="2YqjTu3L9kQ1eXakfIt_-0">
          <mxGeometry x="20.300000000000153" y="990" width="120" height="110" as="geometry" />
        </mxCell>
        <UserObject label="&lt;font style=&quot;font-size: 10px;&quot;&gt;User&lt;/font&gt;" treeRoot="1" id="teCfyKoSKIW5aT6tf8ac-169">
          <mxCell style="whiteSpace=wrap;html=1;align=center;treeFolding=1;treeMoving=1;newEdgeStyle={&quot;edgeStyle&quot;:&quot;elbowEdgeStyle&quot;,&quot;startArrow&quot;:&quot;none&quot;,&quot;endArrow&quot;:&quot;none&quot;};" vertex="1" parent="2YqjTu3L9kQ1eXakfIt_-0">
            <mxGeometry x="55.00000000000014" y="1070" width="50" height="20" as="geometry" />
          </mxCell>
        </UserObject>
        <mxCell id="teCfyKoSKIW5aT6tf8ac-170" value="&lt;font style=&quot;font-size: 14px;&quot;&gt;Log In&lt;/font&gt;" style="text;html=1;align=center;verticalAlign=middle;whiteSpace=wrap;rounded=0;" vertex="1" parent="2YqjTu3L9kQ1eXakfIt_-0">
          <mxGeometry x="30" y="990" width="100" height="30" as="geometry" />
        </mxCell>
        <mxCell id="teCfyKoSKIW5aT6tf8ac-171" value="" style="endArrow=none;html=1;rounded=0;entryX=1;entryY=0.331;entryDx=0;entryDy=0;entryPerimeter=0;exitX=-0.005;exitY=0.331;exitDx=0;exitDy=0;exitPerimeter=0;" edge="1" parent="2YqjTu3L9kQ1eXakfIt_-0">
          <mxGeometry width="50" height="50" relative="1" as="geometry">
            <mxPoint x="20.300000000000097" y="1020" as="sourcePoint" />
            <mxPoint x="140.90000000000012" y="1020" as="targetPoint" />
          </mxGeometry>
        </mxCell>
        <mxCell id="teCfyKoSKIW5aT6tf8ac-172" value="" style="shape=image;html=1;verticalAlign=top;verticalLabelPosition=bottom;labelBackgroundColor=#ffffff;imageAspect=0;aspect=fixed;image=https://cdn2.iconfinder.com/data/icons/essential-web-3/50/edit-document-note-writing-review-128.png" vertex="1" parent="2YqjTu3L9kQ1eXakfIt_-0">
          <mxGeometry x="63.79999999999998" y="1028.5" width="33" height="33" as="geometry" />
        </mxCell>
        <mxCell id="teCfyKoSKIW5aT6tf8ac-185" value="" style="rounded=1;whiteSpace=wrap;html=1;fillColor=#DCDCDC;" vertex="1" parent="2YqjTu3L9kQ1eXakfIt_-0">
          <mxGeometry x="19.70000000000016" y="1120" width="120" height="110" as="geometry" />
        </mxCell>
        <UserObject label="&lt;font style=&quot;font-size: 10px;&quot;&gt;User&lt;/font&gt;" treeRoot="1" id="teCfyKoSKIW5aT6tf8ac-186">
          <mxCell style="whiteSpace=wrap;html=1;align=center;treeFolding=1;treeMoving=1;newEdgeStyle={&quot;edgeStyle&quot;:&quot;elbowEdgeStyle&quot;,&quot;startArrow&quot;:&quot;none&quot;,&quot;endArrow&quot;:&quot;none&quot;};" vertex="1" parent="2YqjTu3L9kQ1eXakfIt_-0">
            <mxGeometry x="54.40000000000015" y="1200" width="50" height="20" as="geometry" />
          </mxCell>
        </UserObject>
        <mxCell id="teCfyKoSKIW5aT6tf8ac-187" value="&lt;font style=&quot;font-size: 14px;&quot;&gt;Register&lt;/font&gt;" style="text;html=1;align=center;verticalAlign=middle;whiteSpace=wrap;rounded=0;" vertex="1" parent="2YqjTu3L9kQ1eXakfIt_-0">
          <mxGeometry x="29.400000000000006" y="1120" width="100" height="30" as="geometry" />
        </mxCell>
        <mxCell id="teCfyKoSKIW5aT6tf8ac-188" value="" style="endArrow=none;html=1;rounded=0;entryX=1;entryY=0.331;entryDx=0;entryDy=0;entryPerimeter=0;exitX=-0.005;exitY=0.331;exitDx=0;exitDy=0;exitPerimeter=0;" edge="1" parent="2YqjTu3L9kQ1eXakfIt_-0">
          <mxGeometry width="50" height="50" relative="1" as="geometry">
            <mxPoint x="19.700000000000102" y="1150" as="sourcePoint" />
            <mxPoint x="140.30000000000013" y="1150" as="targetPoint" />
          </mxGeometry>
        </mxCell>
        <mxCell id="teCfyKoSKIW5aT6tf8ac-189" value="" style="shape=image;html=1;verticalAlign=top;verticalLabelPosition=bottom;labelBackgroundColor=#ffffff;imageAspect=0;aspect=fixed;image=https://cdn2.iconfinder.com/data/icons/essential-web-3/50/edit-document-note-writing-review-128.png" vertex="1" parent="2YqjTu3L9kQ1eXakfIt_-0">
          <mxGeometry x="63.19999999999999" y="1158.5" width="33" height="33" as="geometry" />
        </mxCell>
        <mxCell id="2YqjTu3L9kQ1eXakfIt_-8" value="Post List" style="swimlane;whiteSpace=wrap;html=1;" parent="WIyWlLk6GJQsqaUBKTNV-1" vertex="1">
          <mxGeometry x="440" y="270" width="340" height="330" as="geometry" />
        </mxCell>
        <mxCell id="teCfyKoSKIW5aT6tf8ac-32" value="" style="rounded=1;whiteSpace=wrap;html=1;fillColor=#DCDCDC;" vertex="1" parent="2YqjTu3L9kQ1eXakfIt_-8">
          <mxGeometry x="29.999999999999943" y="40" width="120" height="110" as="geometry" />
        </mxCell>
        <UserObject label="&lt;font style=&quot;font-size: 10px;&quot;&gt;Post&lt;/font&gt;" treeRoot="1" id="teCfyKoSKIW5aT6tf8ac-33">
          <mxCell style="whiteSpace=wrap;html=1;align=center;treeFolding=1;treeMoving=1;newEdgeStyle={&quot;edgeStyle&quot;:&quot;elbowEdgeStyle&quot;,&quot;startArrow&quot;:&quot;none&quot;,&quot;endArrow&quot;:&quot;none&quot;};" vertex="1" parent="2YqjTu3L9kQ1eXakfIt_-8">
            <mxGeometry x="65.00000000000006" y="120" width="50" height="20" as="geometry" />
          </mxCell>
        </UserObject>
        <mxCell id="teCfyKoSKIW5aT6tf8ac-34" value="&lt;font style=&quot;font-size: 14px;&quot;&gt;Post List&lt;/font&gt;" style="text;html=1;align=center;verticalAlign=middle;whiteSpace=wrap;rounded=0;" vertex="1" parent="2YqjTu3L9kQ1eXakfIt_-8">
          <mxGeometry x="60.00000000000006" y="40" width="60" height="30" as="geometry" />
        </mxCell>
        <mxCell id="teCfyKoSKIW5aT6tf8ac-35" value="" style="endArrow=none;html=1;rounded=0;entryX=1;entryY=0.331;entryDx=0;entryDy=0;entryPerimeter=0;exitX=-0.005;exitY=0.331;exitDx=0;exitDy=0;exitPerimeter=0;" edge="1" parent="2YqjTu3L9kQ1eXakfIt_-8">
          <mxGeometry width="50" height="50" relative="1" as="geometry">
            <mxPoint x="29.999999999999943" y="70" as="sourcePoint" />
            <mxPoint x="150.59999999999997" y="70" as="targetPoint" />
          </mxGeometry>
        </mxCell>
        <mxCell id="teCfyKoSKIW5aT6tf8ac-36" value="" style="line;strokeWidth=2;html=1;fillColor=#BBBBBB;strokeColor=#969696;" vertex="1" parent="2YqjTu3L9kQ1eXakfIt_-8">
          <mxGeometry x="67.19999999999999" y="80" width="45" height="10" as="geometry" />
        </mxCell>
        <mxCell id="teCfyKoSKIW5aT6tf8ac-37" value="" style="line;strokeWidth=2;html=1;fillColor=#BBBBBB;strokeColor=#969696;" vertex="1" parent="2YqjTu3L9kQ1eXakfIt_-8">
          <mxGeometry x="67.19999999999999" y="90" width="45" height="10" as="geometry" />
        </mxCell>
        <mxCell id="teCfyKoSKIW5aT6tf8ac-38" value="" style="line;strokeWidth=2;html=1;fillColor=#BBBBBB;strokeColor=#969696;" vertex="1" parent="2YqjTu3L9kQ1eXakfIt_-8">
          <mxGeometry x="67.50000000000006" y="100" width="45" height="10" as="geometry" />
        </mxCell>
        <mxCell id="teCfyKoSKIW5aT6tf8ac-67" value="" style="rounded=1;whiteSpace=wrap;html=1;fillColor=#DCDCDC;" vertex="1" parent="2YqjTu3L9kQ1eXakfIt_-8">
          <mxGeometry x="30.000000000000057" y="180" width="120" height="130" as="geometry" />
        </mxCell>
        <mxCell id="teCfyKoSKIW5aT6tf8ac-68" value="&lt;font style=&quot;font-size: 14px;&quot;&gt;Post Details&lt;/font&gt;" style="text;html=1;align=center;verticalAlign=middle;whiteSpace=wrap;rounded=0;" vertex="1" parent="2YqjTu3L9kQ1eXakfIt_-8">
          <mxGeometry x="39.50000000000006" y="180" width="100" height="30" as="geometry" />
        </mxCell>
        <mxCell id="teCfyKoSKIW5aT6tf8ac-69" value="" style="endArrow=none;html=1;rounded=0;entryX=1;entryY=0.331;entryDx=0;entryDy=0;entryPerimeter=0;exitX=-0.005;exitY=0.331;exitDx=0;exitDy=0;exitPerimeter=0;" edge="1" parent="2YqjTu3L9kQ1eXakfIt_-8">
          <mxGeometry width="50" height="50" relative="1" as="geometry">
            <mxPoint x="30.000000000000284" y="210" as="sourcePoint" />
            <mxPoint x="150.6000000000002" y="210" as="targetPoint" />
          </mxGeometry>
        </mxCell>
        <mxCell id="teCfyKoSKIW5aT6tf8ac-70" value="" style="shape=image;html=1;verticalAlign=top;verticalLabelPosition=bottom;labelBackgroundColor=#ffffff;imageAspect=0;aspect=fixed;image=https://cdn4.iconfinder.com/data/icons/48-bubbles/48/31.ID-Horizontal-128.png" vertex="1" parent="2YqjTu3L9kQ1eXakfIt_-8">
          <mxGeometry x="67.50000000000006" y="213" width="44" height="44" as="geometry" />
        </mxCell>
        <mxCell id="teCfyKoSKIW5aT6tf8ac-71" value="" style="rounded=0;whiteSpace=wrap;html=1;" vertex="1" parent="2YqjTu3L9kQ1eXakfIt_-8">
          <mxGeometry x="50.00000000000006" y="260" width="80" height="40" as="geometry" />
        </mxCell>
        <mxCell id="teCfyKoSKIW5aT6tf8ac-72" value="&lt;font style=&quot;font-size: 10px;&quot;&gt;Post&lt;/font&gt;" style="text;html=1;align=center;verticalAlign=middle;whiteSpace=wrap;rounded=0;" vertex="1" parent="2YqjTu3L9kQ1eXakfIt_-8">
          <mxGeometry x="75.30000000000001" y="260" width="30" height="15" as="geometry" />
        </mxCell>
        <mxCell id="teCfyKoSKIW5aT6tf8ac-73" value="" style="rounded=0;whiteSpace=wrap;html=1;" vertex="1" parent="2YqjTu3L9kQ1eXakfIt_-8">
          <mxGeometry x="66.72000000000008" y="280" width="47.15" height="15" as="geometry" />
        </mxCell>
        <mxCell id="teCfyKoSKIW5aT6tf8ac-74" value="&lt;font style=&quot;font-size: 9px;&quot;&gt;pid = ?&lt;/font&gt;" style="text;html=1;align=center;verticalAlign=middle;whiteSpace=wrap;rounded=0;" vertex="1" parent="2YqjTu3L9kQ1eXakfIt_-8">
          <mxGeometry x="75.00000000000006" y="282.5" width="30" height="10" as="geometry" />
        </mxCell>
        <mxCell id="teCfyKoSKIW5aT6tf8ac-83" value="" style="rounded=1;whiteSpace=wrap;html=1;fillColor=#DCDCDC;" vertex="1" parent="2YqjTu3L9kQ1eXakfIt_-8">
          <mxGeometry x="190" y="40" width="120" height="130" as="geometry" />
        </mxCell>
        <mxCell id="teCfyKoSKIW5aT6tf8ac-84" value="&lt;font style=&quot;font-size: 13px;&quot;&gt;Post Pipelines List&lt;/font&gt;" style="text;html=1;align=center;verticalAlign=middle;whiteSpace=wrap;rounded=0;" vertex="1" parent="2YqjTu3L9kQ1eXakfIt_-8">
          <mxGeometry x="190.67000000000007" y="40" width="120.3" height="30" as="geometry" />
        </mxCell>
        <mxCell id="teCfyKoSKIW5aT6tf8ac-85" value="" style="endArrow=none;html=1;rounded=0;entryX=1;entryY=0.331;entryDx=0;entryDy=0;entryPerimeter=0;exitX=-0.005;exitY=0.331;exitDx=0;exitDy=0;exitPerimeter=0;" edge="1" parent="2YqjTu3L9kQ1eXakfIt_-8">
          <mxGeometry width="50" height="50" relative="1" as="geometry">
            <mxPoint x="190" y="70" as="sourcePoint" />
            <mxPoint x="310.60000000000014" y="70" as="targetPoint" />
          </mxGeometry>
        </mxCell>
        <mxCell id="teCfyKoSKIW5aT6tf8ac-86" value="" style="line;strokeWidth=2;html=1;fillColor=#BBBBBB;strokeColor=#969696;" vertex="1" parent="2YqjTu3L9kQ1eXakfIt_-8">
          <mxGeometry x="227.20000000000005" y="80" width="45" height="10" as="geometry" />
        </mxCell>
        <mxCell id="teCfyKoSKIW5aT6tf8ac-87" value="" style="line;strokeWidth=2;html=1;fillColor=#BBBBBB;strokeColor=#969696;" vertex="1" parent="2YqjTu3L9kQ1eXakfIt_-8">
          <mxGeometry x="227.20000000000005" y="90" width="45" height="10" as="geometry" />
        </mxCell>
        <mxCell id="teCfyKoSKIW5aT6tf8ac-88" value="" style="line;strokeWidth=2;html=1;fillColor=#BBBBBB;strokeColor=#969696;" vertex="1" parent="2YqjTu3L9kQ1eXakfIt_-8">
          <mxGeometry x="227.50000000000023" y="100" width="45" height="10" as="geometry" />
        </mxCell>
        <mxCell id="teCfyKoSKIW5aT6tf8ac-89" value="" style="rounded=0;whiteSpace=wrap;html=1;" vertex="1" parent="2YqjTu3L9kQ1eXakfIt_-8">
          <mxGeometry x="210" y="120" width="80" height="40" as="geometry" />
        </mxCell>
        <mxCell id="teCfyKoSKIW5aT6tf8ac-90" value="&lt;font style=&quot;font-size: 10px;&quot;&gt;Pipeline&lt;/font&gt;" style="text;html=1;align=center;verticalAlign=middle;whiteSpace=wrap;rounded=0;" vertex="1" parent="2YqjTu3L9kQ1eXakfIt_-8">
          <mxGeometry x="234.70000000000005" y="120" width="30" height="15" as="geometry" />
        </mxCell>
        <mxCell id="teCfyKoSKIW5aT6tf8ac-91" value="" style="rounded=0;whiteSpace=wrap;html=1;" vertex="1" parent="2YqjTu3L9kQ1eXakfIt_-8">
          <mxGeometry x="227" y="135" width="47.65" height="15" as="geometry" />
        </mxCell>
        <mxCell id="teCfyKoSKIW5aT6tf8ac-92" value="&lt;font style=&quot;font-size: 9px;&quot;&gt;pid = ?&lt;/font&gt;" style="text;html=1;align=center;verticalAlign=middle;whiteSpace=wrap;rounded=0;" vertex="1" parent="2YqjTu3L9kQ1eXakfIt_-8">
          <mxGeometry x="234.69999999999982" y="135" width="30" height="10" as="geometry" />
        </mxCell>
        <mxCell id="2YqjTu3L9kQ1eXakfIt_-9" value="" style="html=1;labelBackgroundColor=#ffffff;jettySize=auto;orthogonalLoop=1;fontSize=14;rounded=0;jumpStyle=gap;edgeStyle=orthogonalEdgeStyle;startArrow=oval;endArrow=block;strokeWidth=2;startFill=1;endFill=1;sourcePerimeterSpacing=3;targetPerimeterSpacing=3;exitX=1.01;exitY=0.615;exitDx=0;exitDy=0;exitPerimeter=0;strokeColor=#B0B0B0;" parent="WIyWlLk6GJQsqaUBKTNV-1" source="2YqjTu3L9kQ1eXakfIt_-2" edge="1">
          <mxGeometry width="48" height="48" relative="1" as="geometry">
            <mxPoint x="280" y="298" as="sourcePoint" />
            <mxPoint x="440" y="308" as="targetPoint" />
          </mxGeometry>
        </mxCell>
        <mxCell id="2YqjTu3L9kQ1eXakfIt_-68" value="Profile Page" style="swimlane;whiteSpace=wrap;html=1;" parent="WIyWlLk6GJQsqaUBKTNV-1" vertex="1">
          <mxGeometry x="440" y="660" width="520.53" height="210" as="geometry" />
        </mxCell>
        <mxCell id="2YqjTu3L9kQ1eXakfIt_-83" value="" style="rounded=1;whiteSpace=wrap;html=1;fillColor=#DCDCDC;" parent="2YqjTu3L9kQ1eXakfIt_-68" vertex="1">
          <mxGeometry x="33" y="50" width="120" height="130" as="geometry" />
        </mxCell>
        <mxCell id="2YqjTu3L9kQ1eXakfIt_-85" value="&lt;font style=&quot;font-size: 14px;&quot;&gt;Own Posts List&lt;/font&gt;" style="text;html=1;align=center;verticalAlign=middle;whiteSpace=wrap;rounded=0;" parent="2YqjTu3L9kQ1eXakfIt_-68" vertex="1">
          <mxGeometry x="43" y="50" width="100" height="30" as="geometry" />
        </mxCell>
        <mxCell id="2YqjTu3L9kQ1eXakfIt_-86" value="" style="endArrow=none;html=1;rounded=0;entryX=1;entryY=0.331;entryDx=0;entryDy=0;entryPerimeter=0;exitX=-0.005;exitY=0.331;exitDx=0;exitDy=0;exitPerimeter=0;" parent="2YqjTu3L9kQ1eXakfIt_-68" edge="1">
          <mxGeometry width="50" height="50" relative="1" as="geometry">
            <mxPoint x="33.000000000000114" y="80" as="sourcePoint" />
            <mxPoint x="153.60000000000014" y="80" as="targetPoint" />
          </mxGeometry>
        </mxCell>
        <mxCell id="2YqjTu3L9kQ1eXakfIt_-87" value="" style="line;strokeWidth=2;html=1;fillColor=#BBBBBB;strokeColor=#969696;" parent="2YqjTu3L9kQ1eXakfIt_-68" vertex="1">
          <mxGeometry x="70.20000000000016" y="90" width="45" height="10" as="geometry" />
        </mxCell>
        <mxCell id="2YqjTu3L9kQ1eXakfIt_-88" value="" style="line;strokeWidth=2;html=1;fillColor=#BBBBBB;strokeColor=#969696;" parent="2YqjTu3L9kQ1eXakfIt_-68" vertex="1">
          <mxGeometry x="70.20000000000016" y="100" width="45" height="10" as="geometry" />
        </mxCell>
        <mxCell id="2YqjTu3L9kQ1eXakfIt_-89" value="" style="line;strokeWidth=2;html=1;fillColor=#BBBBBB;strokeColor=#969696;" parent="2YqjTu3L9kQ1eXakfIt_-68" vertex="1">
          <mxGeometry x="70.50000000000017" y="110" width="45" height="10" as="geometry" />
        </mxCell>
        <mxCell id="2YqjTu3L9kQ1eXakfIt_-90" value="" style="rounded=0;whiteSpace=wrap;html=1;" parent="2YqjTu3L9kQ1eXakfIt_-68" vertex="1">
          <mxGeometry x="53" y="130" width="80" height="40" as="geometry" />
        </mxCell>
        <mxCell id="2YqjTu3L9kQ1eXakfIt_-91" value="&lt;span style=&quot;font-size: 10px;&quot;&gt;Post&lt;/span&gt;" style="text;html=1;align=center;verticalAlign=middle;whiteSpace=wrap;rounded=0;" parent="2YqjTu3L9kQ1eXakfIt_-68" vertex="1">
          <mxGeometry x="77.70000000000005" y="130" width="30" height="15" as="geometry" />
        </mxCell>
        <mxCell id="2YqjTu3L9kQ1eXakfIt_-92" value="" style="rounded=0;whiteSpace=wrap;html=1;" parent="2YqjTu3L9kQ1eXakfIt_-68" vertex="1">
          <mxGeometry x="70" y="145" width="47.65" height="15" as="geometry" />
        </mxCell>
        <mxCell id="2YqjTu3L9kQ1eXakfIt_-93" value="&lt;font style=&quot;font-size: 9px;&quot;&gt;uid = ?&lt;/font&gt;" style="text;html=1;align=center;verticalAlign=middle;whiteSpace=wrap;rounded=0;" parent="2YqjTu3L9kQ1eXakfIt_-68" vertex="1">
          <mxGeometry x="77.69999999999993" y="145" width="30" height="10" as="geometry" />
        </mxCell>
        <mxCell id="2YqjTu3L9kQ1eXakfIt_-108" value="" style="rounded=1;whiteSpace=wrap;html=1;fillColor=#DCDCDC;" parent="2YqjTu3L9kQ1eXakfIt_-68" vertex="1">
          <mxGeometry x="199.70000000000005" y="50" width="120" height="130" as="geometry" />
        </mxCell>
        <mxCell id="2YqjTu3L9kQ1eXakfIt_-109" value="&lt;font style=&quot;font-size: 13px;&quot;&gt;Own Pipelines List&lt;/font&gt;" style="text;html=1;align=center;verticalAlign=middle;whiteSpace=wrap;rounded=0;" parent="2YqjTu3L9kQ1eXakfIt_-68" vertex="1">
          <mxGeometry x="200.36999999999998" y="50" width="120.3" height="30" as="geometry" />
        </mxCell>
        <mxCell id="2YqjTu3L9kQ1eXakfIt_-110" value="" style="endArrow=none;html=1;rounded=0;entryX=1;entryY=0.331;entryDx=0;entryDy=0;entryPerimeter=0;exitX=-0.005;exitY=0.331;exitDx=0;exitDy=0;exitPerimeter=0;" parent="2YqjTu3L9kQ1eXakfIt_-68" edge="1">
          <mxGeometry width="50" height="50" relative="1" as="geometry">
            <mxPoint x="199.70000000000005" y="80" as="sourcePoint" />
            <mxPoint x="320.3000000000002" y="80" as="targetPoint" />
          </mxGeometry>
        </mxCell>
        <mxCell id="2YqjTu3L9kQ1eXakfIt_-111" value="" style="line;strokeWidth=2;html=1;fillColor=#BBBBBB;strokeColor=#969696;" parent="2YqjTu3L9kQ1eXakfIt_-68" vertex="1">
          <mxGeometry x="236.9000000000001" y="90" width="45" height="10" as="geometry" />
        </mxCell>
        <mxCell id="2YqjTu3L9kQ1eXakfIt_-112" value="" style="line;strokeWidth=2;html=1;fillColor=#BBBBBB;strokeColor=#969696;" parent="2YqjTu3L9kQ1eXakfIt_-68" vertex="1">
          <mxGeometry x="236.9000000000001" y="100" width="45" height="10" as="geometry" />
        </mxCell>
        <mxCell id="2YqjTu3L9kQ1eXakfIt_-113" value="" style="line;strokeWidth=2;html=1;fillColor=#BBBBBB;strokeColor=#969696;" parent="2YqjTu3L9kQ1eXakfIt_-68" vertex="1">
          <mxGeometry x="237.20000000000027" y="110" width="45" height="10" as="geometry" />
        </mxCell>
        <mxCell id="2YqjTu3L9kQ1eXakfIt_-114" value="" style="rounded=0;whiteSpace=wrap;html=1;" parent="2YqjTu3L9kQ1eXakfIt_-68" vertex="1">
          <mxGeometry x="219.70000000000005" y="130" width="80" height="40" as="geometry" />
        </mxCell>
        <mxCell id="2YqjTu3L9kQ1eXakfIt_-115" value="&lt;font style=&quot;font-size: 10px;&quot;&gt;Pipeline&lt;/font&gt;" style="text;html=1;align=center;verticalAlign=middle;whiteSpace=wrap;rounded=0;" parent="2YqjTu3L9kQ1eXakfIt_-68" vertex="1">
          <mxGeometry x="244.4000000000001" y="130" width="30" height="15" as="geometry" />
        </mxCell>
        <mxCell id="2YqjTu3L9kQ1eXakfIt_-116" value="" style="rounded=0;whiteSpace=wrap;html=1;" parent="2YqjTu3L9kQ1eXakfIt_-68" vertex="1">
          <mxGeometry x="236.70000000000005" y="145" width="47.65" height="15" as="geometry" />
        </mxCell>
        <mxCell id="2YqjTu3L9kQ1eXakfIt_-117" value="&lt;font style=&quot;font-size: 9px;&quot;&gt;uid = ?&lt;/font&gt;" style="text;html=1;align=center;verticalAlign=middle;whiteSpace=wrap;rounded=0;" parent="2YqjTu3L9kQ1eXakfIt_-68" vertex="1">
          <mxGeometry x="244.39999999999986" y="145" width="30" height="10" as="geometry" />
        </mxCell>
        <mxCell id="teCfyKoSKIW5aT6tf8ac-15" value="" style="rounded=1;whiteSpace=wrap;html=1;fillColor=#DCDCDC;" vertex="1" parent="2YqjTu3L9kQ1eXakfIt_-68">
          <mxGeometry x="360" y="50" width="120" height="130" as="geometry" />
        </mxCell>
        <mxCell id="teCfyKoSKIW5aT6tf8ac-16" value="&lt;font style=&quot;font-size: 14px;&quot;&gt;Own Details&lt;/font&gt;" style="text;html=1;align=center;verticalAlign=middle;whiteSpace=wrap;rounded=0;" vertex="1" parent="2YqjTu3L9kQ1eXakfIt_-68">
          <mxGeometry x="369.5" y="50" width="100" height="30" as="geometry" />
        </mxCell>
        <mxCell id="teCfyKoSKIW5aT6tf8ac-17" value="" style="endArrow=none;html=1;rounded=0;entryX=1;entryY=0.331;entryDx=0;entryDy=0;entryPerimeter=0;exitX=-0.005;exitY=0.331;exitDx=0;exitDy=0;exitPerimeter=0;" edge="1" parent="2YqjTu3L9kQ1eXakfIt_-68">
          <mxGeometry width="50" height="50" relative="1" as="geometry">
            <mxPoint x="360.0000000000002" y="80" as="sourcePoint" />
            <mxPoint x="480.60000000000014" y="80" as="targetPoint" />
          </mxGeometry>
        </mxCell>
        <mxCell id="teCfyKoSKIW5aT6tf8ac-18" value="" style="shape=image;html=1;verticalAlign=top;verticalLabelPosition=bottom;labelBackgroundColor=#ffffff;imageAspect=0;aspect=fixed;image=https://cdn4.iconfinder.com/data/icons/48-bubbles/48/31.ID-Horizontal-128.png" vertex="1" parent="2YqjTu3L9kQ1eXakfIt_-68">
          <mxGeometry x="397.5" y="83" width="44" height="44" as="geometry" />
        </mxCell>
        <mxCell id="teCfyKoSKIW5aT6tf8ac-19" value="" style="rounded=0;whiteSpace=wrap;html=1;" vertex="1" parent="2YqjTu3L9kQ1eXakfIt_-68">
          <mxGeometry x="380" y="130" width="80" height="40" as="geometry" />
        </mxCell>
        <mxCell id="teCfyKoSKIW5aT6tf8ac-20" value="&lt;font style=&quot;font-size: 10px;&quot;&gt;User&lt;/font&gt;" style="text;html=1;align=center;verticalAlign=middle;whiteSpace=wrap;rounded=0;" vertex="1" parent="2YqjTu3L9kQ1eXakfIt_-68">
          <mxGeometry x="405.29999999999995" y="130" width="30" height="15" as="geometry" />
        </mxCell>
        <mxCell id="teCfyKoSKIW5aT6tf8ac-21" value="" style="rounded=0;whiteSpace=wrap;html=1;" vertex="1" parent="2YqjTu3L9kQ1eXakfIt_-68">
          <mxGeometry x="396.72" y="150" width="47.15" height="15" as="geometry" />
        </mxCell>
        <mxCell id="teCfyKoSKIW5aT6tf8ac-22" value="&lt;font style=&quot;font-size: 9px;&quot;&gt;uid = ?&lt;/font&gt;" style="text;html=1;align=center;verticalAlign=middle;whiteSpace=wrap;rounded=0;" vertex="1" parent="2YqjTu3L9kQ1eXakfIt_-68">
          <mxGeometry x="405" y="152.5" width="30" height="10" as="geometry" />
        </mxCell>
        <mxCell id="2YqjTu3L9kQ1eXakfIt_-82" value="" style="html=1;labelBackgroundColor=#ffffff;jettySize=auto;orthogonalLoop=1;fontSize=14;rounded=0;jumpStyle=gap;edgeStyle=orthogonalEdgeStyle;startArrow=oval;endArrow=block;strokeWidth=2;startFill=1;endFill=1;sourcePerimeterSpacing=3;targetPerimeterSpacing=3;exitX=0.992;exitY=0.438;exitDx=0;exitDy=0;exitPerimeter=0;strokeColor=#B0B0B0;" parent="WIyWlLk6GJQsqaUBKTNV-1" source="2YqjTu3L9kQ1eXakfIt_-44" edge="1">
          <mxGeometry width="48" height="48" relative="1" as="geometry">
            <mxPoint x="260" y="490" as="sourcePoint" />
            <mxPoint x="440" y="700" as="targetPoint" />
            <Array as="points">
              <mxPoint x="380" y="427" />
              <mxPoint x="380" y="700" />
            </Array>
          </mxGeometry>
        </mxCell>
        <mxCell id="2YqjTu3L9kQ1eXakfIt_-94" value="Pipeline List" style="swimlane;whiteSpace=wrap;html=1;" parent="WIyWlLk6GJQsqaUBKTNV-1" vertex="1">
          <mxGeometry x="1121" y="340" width="469" height="190" as="geometry" />
        </mxCell>
        <mxCell id="teCfyKoSKIW5aT6tf8ac-44" value="" style="rounded=1;whiteSpace=wrap;html=1;fillColor=#DCDCDC;" vertex="1" parent="2YqjTu3L9kQ1eXakfIt_-94">
          <mxGeometry x="24.199999999999857" y="40" width="120" height="110" as="geometry" />
        </mxCell>
        <UserObject label="&lt;font style=&quot;font-size: 10px;&quot;&gt;Pipeline&lt;/font&gt;" treeRoot="1" id="teCfyKoSKIW5aT6tf8ac-45">
          <mxCell style="whiteSpace=wrap;html=1;align=center;treeFolding=1;treeMoving=1;newEdgeStyle={&quot;edgeStyle&quot;:&quot;elbowEdgeStyle&quot;,&quot;startArrow&quot;:&quot;none&quot;,&quot;endArrow&quot;:&quot;none&quot;};" vertex="1" parent="2YqjTu3L9kQ1eXakfIt_-94">
            <mxGeometry x="59.20000000000009" y="120" width="50" height="20" as="geometry" />
          </mxCell>
        </UserObject>
        <mxCell id="teCfyKoSKIW5aT6tf8ac-46" value="&lt;font style=&quot;font-size: 14px;&quot;&gt;Pipeline List&lt;/font&gt;" style="text;html=1;align=center;verticalAlign=middle;whiteSpace=wrap;rounded=0;" vertex="1" parent="2YqjTu3L9kQ1eXakfIt_-94">
          <mxGeometry x="44.2" y="40" width="80" height="30" as="geometry" />
        </mxCell>
        <mxCell id="teCfyKoSKIW5aT6tf8ac-47" value="" style="endArrow=none;html=1;rounded=0;entryX=1;entryY=0.331;entryDx=0;entryDy=0;entryPerimeter=0;exitX=-0.005;exitY=0.331;exitDx=0;exitDy=0;exitPerimeter=0;" edge="1" parent="2YqjTu3L9kQ1eXakfIt_-94">
          <mxGeometry width="50" height="50" relative="1" as="geometry">
            <mxPoint x="24.199999999999857" y="70" as="sourcePoint" />
            <mxPoint x="144.8" y="70" as="targetPoint" />
          </mxGeometry>
        </mxCell>
        <mxCell id="teCfyKoSKIW5aT6tf8ac-48" value="" style="line;strokeWidth=2;html=1;fillColor=#BBBBBB;strokeColor=#969696;" vertex="1" parent="2YqjTu3L9kQ1eXakfIt_-94">
          <mxGeometry x="61.399999999999906" y="80" width="45" height="10" as="geometry" />
        </mxCell>
        <mxCell id="teCfyKoSKIW5aT6tf8ac-49" value="" style="line;strokeWidth=2;html=1;fillColor=#BBBBBB;strokeColor=#969696;" vertex="1" parent="2YqjTu3L9kQ1eXakfIt_-94">
          <mxGeometry x="61.399999999999906" y="90" width="45" height="10" as="geometry" />
        </mxCell>
        <mxCell id="teCfyKoSKIW5aT6tf8ac-50" value="" style="line;strokeWidth=2;html=1;fillColor=#BBBBBB;strokeColor=#969696;" vertex="1" parent="2YqjTu3L9kQ1eXakfIt_-94">
          <mxGeometry x="61.70000000000009" y="100" width="45" height="10" as="geometry" />
        </mxCell>
        <mxCell id="teCfyKoSKIW5aT6tf8ac-106" value="" style="rounded=1;whiteSpace=wrap;html=1;fillColor=#DCDCDC;" vertex="1" parent="2YqjTu3L9kQ1eXakfIt_-94">
          <mxGeometry x="169" y="40" width="120" height="130" as="geometry" />
        </mxCell>
        <mxCell id="teCfyKoSKIW5aT6tf8ac-107" value="&lt;font style=&quot;font-size: 14px;&quot;&gt;Pipeline Details&lt;/font&gt;" style="text;html=1;align=center;verticalAlign=middle;whiteSpace=wrap;rounded=0;" vertex="1" parent="2YqjTu3L9kQ1eXakfIt_-94">
          <mxGeometry x="178.5" y="40" width="100" height="30" as="geometry" />
        </mxCell>
        <mxCell id="teCfyKoSKIW5aT6tf8ac-108" value="" style="endArrow=none;html=1;rounded=0;entryX=1;entryY=0.331;entryDx=0;entryDy=0;entryPerimeter=0;exitX=-0.005;exitY=0.331;exitDx=0;exitDy=0;exitPerimeter=0;" edge="1" parent="2YqjTu3L9kQ1eXakfIt_-94">
          <mxGeometry width="50" height="50" relative="1" as="geometry">
            <mxPoint x="169.00000000000023" y="70" as="sourcePoint" />
            <mxPoint x="289.60000000000014" y="70" as="targetPoint" />
          </mxGeometry>
        </mxCell>
        <mxCell id="teCfyKoSKIW5aT6tf8ac-109" value="" style="shape=image;html=1;verticalAlign=top;verticalLabelPosition=bottom;labelBackgroundColor=#ffffff;imageAspect=0;aspect=fixed;image=https://cdn4.iconfinder.com/data/icons/48-bubbles/48/31.ID-Horizontal-128.png" vertex="1" parent="2YqjTu3L9kQ1eXakfIt_-94">
          <mxGeometry x="206.5" y="73" width="44" height="44" as="geometry" />
        </mxCell>
        <mxCell id="teCfyKoSKIW5aT6tf8ac-110" value="" style="rounded=0;whiteSpace=wrap;html=1;" vertex="1" parent="2YqjTu3L9kQ1eXakfIt_-94">
          <mxGeometry x="189" y="120" width="80" height="40" as="geometry" />
        </mxCell>
        <mxCell id="teCfyKoSKIW5aT6tf8ac-111" value="&lt;font style=&quot;font-size: 10px;&quot;&gt;Pipeline&lt;/font&gt;" style="text;html=1;align=center;verticalAlign=middle;whiteSpace=wrap;rounded=0;" vertex="1" parent="2YqjTu3L9kQ1eXakfIt_-94">
          <mxGeometry x="214.29999999999995" y="120" width="30" height="15" as="geometry" />
        </mxCell>
        <mxCell id="teCfyKoSKIW5aT6tf8ac-112" value="" style="rounded=0;whiteSpace=wrap;html=1;" vertex="1" parent="2YqjTu3L9kQ1eXakfIt_-94">
          <mxGeometry x="205.72000000000003" y="140" width="47.15" height="15" as="geometry" />
        </mxCell>
        <mxCell id="teCfyKoSKIW5aT6tf8ac-113" value="&lt;font style=&quot;font-size: 9px;&quot;&gt;pid = ?&lt;/font&gt;" style="text;html=1;align=center;verticalAlign=middle;whiteSpace=wrap;rounded=0;" vertex="1" parent="2YqjTu3L9kQ1eXakfIt_-94">
          <mxGeometry x="214" y="142.5" width="30" height="10" as="geometry" />
        </mxCell>
        <mxCell id="teCfyKoSKIW5aT6tf8ac-94" value="" style="rounded=1;whiteSpace=wrap;html=1;fillColor=#DCDCDC;" vertex="1" parent="2YqjTu3L9kQ1eXakfIt_-94">
          <mxGeometry x="319" y="40" width="120" height="130" as="geometry" />
        </mxCell>
        <mxCell id="teCfyKoSKIW5aT6tf8ac-96" value="&lt;font style=&quot;font-size: 14px;&quot;&gt;Load in GUI&lt;/font&gt;" style="text;html=1;align=center;verticalAlign=middle;whiteSpace=wrap;rounded=0;" vertex="1" parent="2YqjTu3L9kQ1eXakfIt_-94">
          <mxGeometry x="338.1" y="40" width="82.4" height="30" as="geometry" />
        </mxCell>
        <mxCell id="teCfyKoSKIW5aT6tf8ac-97" value="" style="endArrow=none;html=1;rounded=0;entryX=1;entryY=0.331;entryDx=0;entryDy=0;entryPerimeter=0;exitX=-0.005;exitY=0.331;exitDx=0;exitDy=0;exitPerimeter=0;" edge="1" parent="2YqjTu3L9kQ1eXakfIt_-94">
          <mxGeometry width="50" height="50" relative="1" as="geometry">
            <mxPoint x="319.0000000000003" y="70" as="sourcePoint" />
            <mxPoint x="439.6000000000002" y="70" as="targetPoint" />
          </mxGeometry>
        </mxCell>
        <mxCell id="teCfyKoSKIW5aT6tf8ac-105" value="" style="sketch=0;html=1;aspect=fixed;strokeColor=none;shadow=0;fillColor=#3B8DF1;verticalAlign=top;labelPosition=center;verticalLabelPosition=bottom;shape=mxgraph.gcp2.loading_2" vertex="1" parent="2YqjTu3L9kQ1eXakfIt_-94">
          <mxGeometry x="365.1" y="80" width="27.8" height="29.89" as="geometry" />
        </mxCell>
        <mxCell id="teCfyKoSKIW5aT6tf8ac-159" value="" style="rounded=0;whiteSpace=wrap;html=1;" vertex="1" parent="2YqjTu3L9kQ1eXakfIt_-94">
          <mxGeometry x="339" y="120" width="80" height="40" as="geometry" />
        </mxCell>
        <mxCell id="teCfyKoSKIW5aT6tf8ac-160" value="&lt;font style=&quot;font-size: 10px;&quot;&gt;Pipeline&lt;/font&gt;" style="text;html=1;align=center;verticalAlign=middle;whiteSpace=wrap;rounded=0;" vertex="1" parent="2YqjTu3L9kQ1eXakfIt_-94">
          <mxGeometry x="364" y="122.5" width="30" height="15" as="geometry" />
        </mxCell>
        <mxCell id="teCfyKoSKIW5aT6tf8ac-161" value="" style="rounded=0;whiteSpace=wrap;html=1;" vertex="1" parent="2YqjTu3L9kQ1eXakfIt_-94">
          <mxGeometry x="355.7200000000001" y="140" width="47.15" height="15" as="geometry" />
        </mxCell>
        <mxCell id="teCfyKoSKIW5aT6tf8ac-162" value="&lt;font style=&quot;font-size: 9px;&quot;&gt;pid = ?&lt;/font&gt;" style="text;html=1;align=center;verticalAlign=middle;whiteSpace=wrap;rounded=0;" vertex="1" parent="2YqjTu3L9kQ1eXakfIt_-94">
          <mxGeometry x="365.0999999999999" y="140" width="30" height="10" as="geometry" />
        </mxCell>
        <mxCell id="2YqjTu3L9kQ1eXakfIt_-118" value="" style="html=1;labelBackgroundColor=#ffffff;jettySize=auto;orthogonalLoop=1;fontSize=14;rounded=0;jumpStyle=gap;edgeStyle=orthogonalEdgeStyle;startArrow=oval;endArrow=block;strokeWidth=2;startFill=1;endFill=1;sourcePerimeterSpacing=3;targetPerimeterSpacing=3;strokeColor=#B0B0B0;" parent="WIyWlLk6GJQsqaUBKTNV-1" edge="1">
          <mxGeometry width="48" height="48" relative="1" as="geometry">
            <mxPoint x="540" y="710" as="sourcePoint" />
            <mxPoint x="540" y="600" as="targetPoint" />
            <Array as="points">
              <mxPoint x="540" y="690" />
              <mxPoint x="540" y="690" />
            </Array>
          </mxGeometry>
        </mxCell>
        <mxCell id="2YqjTu3L9kQ1eXakfIt_-119" value="" style="html=1;labelBackgroundColor=#ffffff;jettySize=auto;orthogonalLoop=1;fontSize=14;rounded=0;jumpStyle=gap;edgeStyle=orthogonalEdgeStyle;startArrow=oval;endArrow=block;strokeWidth=2;startFill=1;endFill=1;sourcePerimeterSpacing=3;targetPerimeterSpacing=3;strokeColor=#B0B0B0;" parent="WIyWlLk6GJQsqaUBKTNV-1" edge="1">
          <mxGeometry width="48" height="48" relative="1" as="geometry">
            <mxPoint x="740" y="710" as="sourcePoint" />
            <mxPoint x="1120" y="490" as="targetPoint" />
            <Array as="points">
              <mxPoint x="740" y="650" />
              <mxPoint x="840" y="650" />
              <mxPoint x="840" y="490" />
            </Array>
          </mxGeometry>
        </mxCell>
        <mxCell id="2YqjTu3L9kQ1eXakfIt_-127" value="Group List" style="swimlane;whiteSpace=wrap;html=1;startSize=23;" parent="WIyWlLk6GJQsqaUBKTNV-1" vertex="1">
          <mxGeometry x="440" y="40" width="180" height="190" as="geometry" />
        </mxCell>
        <mxCell id="2YqjTu3L9kQ1eXakfIt_-129" value="" style="rounded=1;whiteSpace=wrap;html=1;fillColor=#DCDCDC;" parent="2YqjTu3L9kQ1eXakfIt_-127" vertex="1">
          <mxGeometry x="30.00000000000003" y="40" width="120" height="130" as="geometry" />
        </mxCell>
        <mxCell id="2YqjTu3L9kQ1eXakfIt_-130" value="&lt;font style=&quot;font-size: 14px;&quot;&gt;Group Posts List&lt;/font&gt;" style="text;html=1;align=center;verticalAlign=middle;whiteSpace=wrap;rounded=0;" parent="2YqjTu3L9kQ1eXakfIt_-127" vertex="1">
          <mxGeometry x="35.82" y="40" width="110" height="30" as="geometry" />
        </mxCell>
        <mxCell id="2YqjTu3L9kQ1eXakfIt_-131" value="" style="endArrow=none;html=1;rounded=0;entryX=1;entryY=0.331;entryDx=0;entryDy=0;entryPerimeter=0;exitX=-0.005;exitY=0.331;exitDx=0;exitDy=0;exitPerimeter=0;" parent="2YqjTu3L9kQ1eXakfIt_-127" edge="1">
          <mxGeometry width="50" height="50" relative="1" as="geometry">
            <mxPoint x="30.000000000000142" y="70" as="sourcePoint" />
            <mxPoint x="150.60000000000016" y="70" as="targetPoint" />
          </mxGeometry>
        </mxCell>
        <mxCell id="2YqjTu3L9kQ1eXakfIt_-132" value="" style="line;strokeWidth=2;html=1;fillColor=#BBBBBB;strokeColor=#969696;" parent="2YqjTu3L9kQ1eXakfIt_-127" vertex="1">
          <mxGeometry x="67.20000000000019" y="80" width="45" height="10" as="geometry" />
        </mxCell>
        <mxCell id="2YqjTu3L9kQ1eXakfIt_-133" value="" style="line;strokeWidth=2;html=1;fillColor=#BBBBBB;strokeColor=#969696;" parent="2YqjTu3L9kQ1eXakfIt_-127" vertex="1">
          <mxGeometry x="67.20000000000019" y="90" width="45" height="10" as="geometry" />
        </mxCell>
        <mxCell id="2YqjTu3L9kQ1eXakfIt_-134" value="" style="line;strokeWidth=2;html=1;fillColor=#BBBBBB;strokeColor=#969696;" parent="2YqjTu3L9kQ1eXakfIt_-127" vertex="1">
          <mxGeometry x="67.50000000000026" y="100" width="45" height="10" as="geometry" />
        </mxCell>
        <mxCell id="2YqjTu3L9kQ1eXakfIt_-135" value="" style="rounded=0;whiteSpace=wrap;html=1;" parent="2YqjTu3L9kQ1eXakfIt_-127" vertex="1">
          <mxGeometry x="50.00000000000003" y="120" width="80" height="40" as="geometry" />
        </mxCell>
        <mxCell id="2YqjTu3L9kQ1eXakfIt_-136" value="&lt;font style=&quot;font-size: 10px;&quot;&gt;Post&lt;/font&gt;" style="text;html=1;align=center;verticalAlign=middle;whiteSpace=wrap;rounded=0;" parent="2YqjTu3L9kQ1eXakfIt_-127" vertex="1">
          <mxGeometry x="74.70000000000007" y="120" width="30" height="15" as="geometry" />
        </mxCell>
        <mxCell id="2YqjTu3L9kQ1eXakfIt_-137" value="" style="rounded=0;whiteSpace=wrap;html=1;" parent="2YqjTu3L9kQ1eXakfIt_-127" vertex="1">
          <mxGeometry x="67.00000000000003" y="135" width="47.65" height="15" as="geometry" />
        </mxCell>
        <mxCell id="2YqjTu3L9kQ1eXakfIt_-138" value="&lt;font style=&quot;font-size: 9px;&quot;&gt;gid = ?&lt;/font&gt;" style="text;html=1;align=center;verticalAlign=middle;whiteSpace=wrap;rounded=0;" parent="2YqjTu3L9kQ1eXakfIt_-127" vertex="1">
          <mxGeometry x="74.69999999999996" y="135" width="30" height="10" as="geometry" />
        </mxCell>
        <mxCell id="2YqjTu3L9kQ1eXakfIt_-149" value="User List" style="swimlane;whiteSpace=wrap;html=1;startSize=23;" parent="WIyWlLk6GJQsqaUBKTNV-1" vertex="1">
          <mxGeometry x="440" y="1030" width="620" height="210" as="geometry" />
        </mxCell>
        <mxCell id="2YqjTu3L9kQ1eXakfIt_-160" value="" style="rounded=1;whiteSpace=wrap;html=1;fillColor=#DCDCDC;" parent="2YqjTu3L9kQ1eXakfIt_-149" vertex="1">
          <mxGeometry x="20" y="40" width="120" height="110" as="geometry" />
        </mxCell>
        <UserObject label="&lt;font style=&quot;font-size: 10px;&quot;&gt;User&lt;/font&gt;" treeRoot="1" id="2YqjTu3L9kQ1eXakfIt_-161">
          <mxCell style="whiteSpace=wrap;html=1;align=center;treeFolding=1;treeMoving=1;newEdgeStyle={&quot;edgeStyle&quot;:&quot;elbowEdgeStyle&quot;,&quot;startArrow&quot;:&quot;none&quot;,&quot;endArrow&quot;:&quot;none&quot;};" parent="2YqjTu3L9kQ1eXakfIt_-149" vertex="1">
            <mxGeometry x="55" y="120" width="50" height="20" as="geometry" />
          </mxCell>
        </UserObject>
        <mxCell id="2YqjTu3L9kQ1eXakfIt_-162" value="&lt;font style=&quot;font-size: 14px;&quot;&gt;User List&lt;/font&gt;" style="text;html=1;align=center;verticalAlign=middle;whiteSpace=wrap;rounded=0;" parent="2YqjTu3L9kQ1eXakfIt_-149" vertex="1">
          <mxGeometry x="45.600000000000136" y="40" width="70.6" height="30" as="geometry" />
        </mxCell>
        <mxCell id="2YqjTu3L9kQ1eXakfIt_-163" value="" style="endArrow=none;html=1;rounded=0;entryX=1;entryY=0.331;entryDx=0;entryDy=0;entryPerimeter=0;exitX=-0.005;exitY=0.331;exitDx=0;exitDy=0;exitPerimeter=0;" parent="2YqjTu3L9kQ1eXakfIt_-149" edge="1">
          <mxGeometry width="50" height="50" relative="1" as="geometry">
            <mxPoint x="20" y="70" as="sourcePoint" />
            <mxPoint x="140.5999999999999" y="70" as="targetPoint" />
          </mxGeometry>
        </mxCell>
        <mxCell id="2YqjTu3L9kQ1eXakfIt_-164" value="" style="line;strokeWidth=2;html=1;fillColor=#BBBBBB;strokeColor=#969696;" parent="2YqjTu3L9kQ1eXakfIt_-149" vertex="1">
          <mxGeometry x="57.200000000000045" y="80" width="45" height="10" as="geometry" />
        </mxCell>
        <mxCell id="2YqjTu3L9kQ1eXakfIt_-165" value="" style="line;strokeWidth=2;html=1;fillColor=#BBBBBB;strokeColor=#969696;" parent="2YqjTu3L9kQ1eXakfIt_-149" vertex="1">
          <mxGeometry x="57.200000000000045" y="90" width="45" height="10" as="geometry" />
        </mxCell>
        <mxCell id="2YqjTu3L9kQ1eXakfIt_-166" value="" style="line;strokeWidth=2;html=1;fillColor=#BBBBBB;strokeColor=#969696;" parent="2YqjTu3L9kQ1eXakfIt_-149" vertex="1">
          <mxGeometry x="57.5" y="100" width="45" height="10" as="geometry" />
        </mxCell>
        <mxCell id="teCfyKoSKIW5aT6tf8ac-7" value="" style="rounded=1;whiteSpace=wrap;html=1;fillColor=#DCDCDC;" vertex="1" parent="2YqjTu3L9kQ1eXakfIt_-149">
          <mxGeometry x="170.00000000000006" y="40" width="120" height="130" as="geometry" />
        </mxCell>
        <mxCell id="teCfyKoSKIW5aT6tf8ac-8" value="&lt;font style=&quot;font-size: 14px;&quot;&gt;User Details&lt;/font&gt;" style="text;html=1;align=center;verticalAlign=middle;whiteSpace=wrap;rounded=0;" vertex="1" parent="2YqjTu3L9kQ1eXakfIt_-149">
          <mxGeometry x="179.5" y="40" width="100" height="30" as="geometry" />
        </mxCell>
        <mxCell id="teCfyKoSKIW5aT6tf8ac-9" value="" style="endArrow=none;html=1;rounded=0;entryX=1;entryY=0.331;entryDx=0;entryDy=0;entryPerimeter=0;exitX=-0.005;exitY=0.331;exitDx=0;exitDy=0;exitPerimeter=0;" edge="1" parent="2YqjTu3L9kQ1eXakfIt_-149">
          <mxGeometry width="50" height="50" relative="1" as="geometry">
            <mxPoint x="170.00000000000017" y="70" as="sourcePoint" />
            <mxPoint x="290.6000000000002" y="70" as="targetPoint" />
          </mxGeometry>
        </mxCell>
        <mxCell id="teCfyKoSKIW5aT6tf8ac-10" value="" style="shape=image;html=1;verticalAlign=top;verticalLabelPosition=bottom;labelBackgroundColor=#ffffff;imageAspect=0;aspect=fixed;image=https://cdn4.iconfinder.com/data/icons/48-bubbles/48/31.ID-Horizontal-128.png" vertex="1" parent="2YqjTu3L9kQ1eXakfIt_-149">
          <mxGeometry x="207.50000000000006" y="73" width="44" height="44" as="geometry" />
        </mxCell>
        <mxCell id="teCfyKoSKIW5aT6tf8ac-11" value="" style="rounded=0;whiteSpace=wrap;html=1;" vertex="1" parent="2YqjTu3L9kQ1eXakfIt_-149">
          <mxGeometry x="190.00000000000006" y="120" width="80" height="40" as="geometry" />
        </mxCell>
        <mxCell id="teCfyKoSKIW5aT6tf8ac-12" value="&lt;font style=&quot;font-size: 10px;&quot;&gt;User&lt;/font&gt;" style="text;html=1;align=center;verticalAlign=middle;whiteSpace=wrap;rounded=0;" vertex="1" parent="2YqjTu3L9kQ1eXakfIt_-149">
          <mxGeometry x="215.3" y="120" width="30" height="15" as="geometry" />
        </mxCell>
        <mxCell id="teCfyKoSKIW5aT6tf8ac-13" value="" style="rounded=0;whiteSpace=wrap;html=1;" vertex="1" parent="2YqjTu3L9kQ1eXakfIt_-149">
          <mxGeometry x="206.72000000000008" y="140" width="47.15" height="15" as="geometry" />
        </mxCell>
        <mxCell id="teCfyKoSKIW5aT6tf8ac-14" value="&lt;font style=&quot;font-size: 9px;&quot;&gt;uid = ?&lt;/font&gt;" style="text;html=1;align=center;verticalAlign=middle;whiteSpace=wrap;rounded=0;" vertex="1" parent="2YqjTu3L9kQ1eXakfIt_-149">
          <mxGeometry x="215.00000000000006" y="142.5" width="30" height="10" as="geometry" />
        </mxCell>
        <mxCell id="teCfyKoSKIW5aT6tf8ac-173" value="" style="rounded=1;whiteSpace=wrap;html=1;fillColor=#DCDCDC;" vertex="1" parent="2YqjTu3L9kQ1eXakfIt_-149">
          <mxGeometry x="320" y="40" width="120" height="120" as="geometry" />
        </mxCell>
        <UserObject label="&lt;font style=&quot;font-size: 10px;&quot;&gt;User&lt;/font&gt;" treeRoot="1" id="teCfyKoSKIW5aT6tf8ac-174">
          <mxCell style="whiteSpace=wrap;html=1;align=center;treeFolding=1;treeMoving=1;newEdgeStyle={&quot;edgeStyle&quot;:&quot;elbowEdgeStyle&quot;,&quot;startArrow&quot;:&quot;none&quot;,&quot;endArrow&quot;:&quot;none&quot;};" vertex="1" parent="2YqjTu3L9kQ1eXakfIt_-149">
            <mxGeometry x="355" y="130" width="50" height="20" as="geometry" />
          </mxCell>
        </UserObject>
        <mxCell id="teCfyKoSKIW5aT6tf8ac-175" value="&lt;font style=&quot;font-size: 14px;&quot;&gt;Log In&lt;/font&gt;" style="text;html=1;align=center;verticalAlign=middle;whiteSpace=wrap;rounded=0;" vertex="1" parent="2YqjTu3L9kQ1eXakfIt_-149">
          <mxGeometry x="335.20000000000005" y="40" width="90.2" height="30" as="geometry" />
        </mxCell>
        <mxCell id="teCfyKoSKIW5aT6tf8ac-176" value="" style="endArrow=none;html=1;rounded=0;entryX=1;entryY=0.331;entryDx=0;entryDy=0;entryPerimeter=0;exitX=-0.005;exitY=0.331;exitDx=0;exitDy=0;exitPerimeter=0;" edge="1" parent="2YqjTu3L9kQ1eXakfIt_-149">
          <mxGeometry width="50" height="50" relative="1" as="geometry">
            <mxPoint x="320.0000000000002" y="70" as="sourcePoint" />
            <mxPoint x="440.60000000000014" y="70" as="targetPoint" />
          </mxGeometry>
        </mxCell>
        <mxCell id="teCfyKoSKIW5aT6tf8ac-177" value="" style="image;html=1;image=img/lib/clip_art/computers/Database_128x128.png" vertex="1" parent="2YqjTu3L9kQ1eXakfIt_-149">
          <mxGeometry x="364.3499999999999" y="82.5" width="31.3" height="35" as="geometry" />
        </mxCell>
        <mxCell id="teCfyKoSKIW5aT6tf8ac-178" value="" style="shape=cross;whiteSpace=wrap;html=1;fillColor=#FFFF03;size=0.20115234375;" vertex="1" parent="2YqjTu3L9kQ1eXakfIt_-149">
          <mxGeometry x="382.3499999999999" y="105" width="13.3" height="12.5" as="geometry" />
        </mxCell>
        <mxCell id="teCfyKoSKIW5aT6tf8ac-193" value="" style="rounded=1;whiteSpace=wrap;html=1;fillColor=#DCDCDC;" vertex="1" parent="2YqjTu3L9kQ1eXakfIt_-149">
          <mxGeometry x="470" y="40" width="120" height="120" as="geometry" />
        </mxCell>
        <UserObject label="&lt;font style=&quot;font-size: 10px;&quot;&gt;User&lt;/font&gt;" treeRoot="1" id="teCfyKoSKIW5aT6tf8ac-194">
          <mxCell style="whiteSpace=wrap;html=1;align=center;treeFolding=1;treeMoving=1;newEdgeStyle={&quot;edgeStyle&quot;:&quot;elbowEdgeStyle&quot;,&quot;startArrow&quot;:&quot;none&quot;,&quot;endArrow&quot;:&quot;none&quot;};" vertex="1" parent="2YqjTu3L9kQ1eXakfIt_-149">
            <mxGeometry x="505" y="130" width="50" height="20" as="geometry" />
          </mxCell>
        </UserObject>
        <mxCell id="teCfyKoSKIW5aT6tf8ac-195" value="&lt;font style=&quot;font-size: 14px;&quot;&gt;Register&lt;/font&gt;" style="text;html=1;align=center;verticalAlign=middle;whiteSpace=wrap;rounded=0;" vertex="1" parent="2YqjTu3L9kQ1eXakfIt_-149">
          <mxGeometry x="485.20000000000005" y="40" width="90.2" height="30" as="geometry" />
        </mxCell>
        <mxCell id="teCfyKoSKIW5aT6tf8ac-196" value="" style="endArrow=none;html=1;rounded=0;entryX=1;entryY=0.331;entryDx=0;entryDy=0;entryPerimeter=0;exitX=-0.005;exitY=0.331;exitDx=0;exitDy=0;exitPerimeter=0;" edge="1" parent="2YqjTu3L9kQ1eXakfIt_-149">
          <mxGeometry width="50" height="50" relative="1" as="geometry">
            <mxPoint x="470.0000000000002" y="70" as="sourcePoint" />
            <mxPoint x="590.6000000000001" y="70" as="targetPoint" />
          </mxGeometry>
        </mxCell>
        <mxCell id="teCfyKoSKIW5aT6tf8ac-197" value="" style="image;html=1;image=img/lib/clip_art/computers/Database_128x128.png" vertex="1" parent="2YqjTu3L9kQ1eXakfIt_-149">
          <mxGeometry x="514.3499999999999" y="82.5" width="31.3" height="35" as="geometry" />
        </mxCell>
        <mxCell id="teCfyKoSKIW5aT6tf8ac-198" value="" style="shape=cross;whiteSpace=wrap;html=1;fillColor=#FFFF03;size=0.20115234375;" vertex="1" parent="2YqjTu3L9kQ1eXakfIt_-149">
          <mxGeometry x="532.3499999999999" y="105" width="13.3" height="12.5" as="geometry" />
        </mxCell>
        <mxCell id="teCfyKoSKIW5aT6tf8ac-199" value="" style="html=1;labelBackgroundColor=#ffffff;jettySize=auto;orthogonalLoop=1;fontSize=14;rounded=0;jumpStyle=gap;edgeStyle=orthogonalEdgeStyle;startArrow=oval;endArrow=block;strokeWidth=2;startFill=1;endFill=1;sourcePerimeterSpacing=3;targetPerimeterSpacing=3;exitX=0.5;exitY=1;exitDx=0;exitDy=0;strokeColor=#B0B0B0;entryX=0.437;entryY=1.016;entryDx=0;entryDy=0;entryPerimeter=0;" edge="1" parent="2YqjTu3L9kQ1eXakfIt_-149" source="teCfyKoSKIW5aT6tf8ac-193" target="2YqjTu3L9kQ1eXakfIt_-160">
          <mxGeometry width="48" height="48" relative="1" as="geometry">
            <mxPoint x="560" y="180" as="sourcePoint" />
            <mxPoint x="792" y="180" as="targetPoint" />
            <Array as="points">
              <mxPoint x="530" y="190" />
              <mxPoint x="72" y="190" />
            </Array>
          </mxGeometry>
        </mxCell>
        <mxCell id="2YqjTu3L9kQ1eXakfIt_-167" value="" style="html=1;labelBackgroundColor=#ffffff;jettySize=auto;orthogonalLoop=1;fontSize=14;rounded=0;jumpStyle=gap;edgeStyle=orthogonalEdgeStyle;startArrow=oval;endArrow=block;strokeWidth=2;startFill=1;endFill=1;sourcePerimeterSpacing=3;targetPerimeterSpacing=3;exitX=0.987;exitY=0.435;exitDx=0;exitDy=0;exitPerimeter=0;strokeColor=#B0B0B0;entryX=0.065;entryY=-0.002;entryDx=0;entryDy=0;entryPerimeter=0;" parent="WIyWlLk6GJQsqaUBKTNV-1" source="2YqjTu3L9kQ1eXakfIt_-142" target="2YqjTu3L9kQ1eXakfIt_-149" edge="1">
          <mxGeometry width="48" height="48" relative="1" as="geometry">
            <mxPoint x="260" y="740" as="sourcePoint" />
            <mxPoint x="490" y="1010" as="targetPoint" />
            <Array as="points">
              <mxPoint x="310" y="698" />
              <mxPoint x="310" y="890" />
              <mxPoint x="480" y="890" />
            </Array>
          </mxGeometry>
        </mxCell>
        <mxCell id="teCfyKoSKIW5aT6tf8ac-23" value="" style="html=1;labelBackgroundColor=#ffffff;jettySize=auto;orthogonalLoop=1;fontSize=14;rounded=0;jumpStyle=gap;edgeStyle=orthogonalEdgeStyle;startArrow=oval;endArrow=block;strokeWidth=2;startFill=1;endFill=1;sourcePerimeterSpacing=3;targetPerimeterSpacing=3;strokeColor=#B0B0B0;exitX=0.75;exitY=1;exitDx=0;exitDy=0;entryX=0.725;entryY=0.002;entryDx=0;entryDy=0;entryPerimeter=0;" edge="1" parent="WIyWlLk6GJQsqaUBKTNV-1" source="teCfyKoSKIW5aT6tf8ac-15" target="2YqjTu3L9kQ1eXakfIt_-149">
          <mxGeometry width="48" height="48" relative="1" as="geometry">
            <mxPoint x="860" y="680" as="sourcePoint" />
            <mxPoint x="890" y="1010" as="targetPoint" />
            <Array as="points" />
          </mxGeometry>
        </mxCell>
        <mxCell id="teCfyKoSKIW5aT6tf8ac-117" value="Picastlo GUI" style="swimlane;whiteSpace=wrap;html=1;" vertex="1" parent="WIyWlLk6GJQsqaUBKTNV-1">
          <mxGeometry x="1080" y="640" width="610" height="180" as="geometry" />
        </mxCell>
        <mxCell id="teCfyKoSKIW5aT6tf8ac-118" value="" style="rounded=1;whiteSpace=wrap;html=1;fillColor=#DCDCDC;" vertex="1" parent="teCfyKoSKIW5aT6tf8ac-117">
          <mxGeometry x="20" y="40" width="120" height="120" as="geometry" />
        </mxCell>
        <UserObject label="&lt;font style=&quot;font-size: 10px;&quot;&gt;Pipeline&lt;/font&gt;" treeRoot="1" id="teCfyKoSKIW5aT6tf8ac-119">
          <mxCell style="whiteSpace=wrap;html=1;align=center;treeFolding=1;treeMoving=1;newEdgeStyle={&quot;edgeStyle&quot;:&quot;elbowEdgeStyle&quot;,&quot;startArrow&quot;:&quot;none&quot;,&quot;endArrow&quot;:&quot;none&quot;};" vertex="1" parent="teCfyKoSKIW5aT6tf8ac-117">
            <mxGeometry x="55.000000000000114" y="130" width="50" height="20" as="geometry" />
          </mxCell>
        </UserObject>
        <mxCell id="teCfyKoSKIW5aT6tf8ac-120" value="&lt;font style=&quot;font-size: 14px;&quot;&gt;Save Pipeline&lt;/font&gt;" style="text;html=1;align=center;verticalAlign=middle;whiteSpace=wrap;rounded=0;" vertex="1" parent="teCfyKoSKIW5aT6tf8ac-117">
          <mxGeometry x="35.20000000000002" y="40" width="90.2" height="30" as="geometry" />
        </mxCell>
        <mxCell id="teCfyKoSKIW5aT6tf8ac-121" value="" style="endArrow=none;html=1;rounded=0;entryX=1;entryY=0.331;entryDx=0;entryDy=0;entryPerimeter=0;exitX=-0.005;exitY=0.331;exitDx=0;exitDy=0;exitPerimeter=0;" edge="1" parent="teCfyKoSKIW5aT6tf8ac-117">
          <mxGeometry width="50" height="50" relative="1" as="geometry">
            <mxPoint x="20.000000000000284" y="70" as="sourcePoint" />
            <mxPoint x="140.6000000000002" y="70" as="targetPoint" />
          </mxGeometry>
        </mxCell>
        <mxCell id="teCfyKoSKIW5aT6tf8ac-132" value="" style="rounded=1;whiteSpace=wrap;html=1;fillColor=#DCDCDC;" vertex="1" parent="teCfyKoSKIW5aT6tf8ac-117">
          <mxGeometry x="320" y="40" width="120" height="120" as="geometry" />
        </mxCell>
        <UserObject label="&lt;font style=&quot;font-size: 10px;&quot;&gt;Image&lt;/font&gt;" treeRoot="1" id="teCfyKoSKIW5aT6tf8ac-133">
          <mxCell style="whiteSpace=wrap;html=1;align=center;treeFolding=1;treeMoving=1;newEdgeStyle={&quot;edgeStyle&quot;:&quot;elbowEdgeStyle&quot;,&quot;startArrow&quot;:&quot;none&quot;,&quot;endArrow&quot;:&quot;none&quot;};" vertex="1" parent="teCfyKoSKIW5aT6tf8ac-117">
            <mxGeometry x="355" y="130" width="50" height="20" as="geometry" />
          </mxCell>
        </UserObject>
        <mxCell id="teCfyKoSKIW5aT6tf8ac-134" value="&lt;div style=&quot;&quot;&gt;&lt;span style=&quot;background-color: initial;&quot;&gt;Produce and export Image&lt;/span&gt;&lt;/div&gt;" style="text;html=1;align=center;verticalAlign=middle;whiteSpace=wrap;rounded=0;" vertex="1" parent="teCfyKoSKIW5aT6tf8ac-117">
          <mxGeometry x="335.20000000000005" y="40" width="90.2" height="30" as="geometry" />
        </mxCell>
        <mxCell id="teCfyKoSKIW5aT6tf8ac-135" value="" style="endArrow=none;html=1;rounded=0;entryX=1;entryY=0.331;entryDx=0;entryDy=0;entryPerimeter=0;exitX=-0.005;exitY=0.331;exitDx=0;exitDy=0;exitPerimeter=0;" edge="1" parent="teCfyKoSKIW5aT6tf8ac-117">
          <mxGeometry width="50" height="50" relative="1" as="geometry">
            <mxPoint x="320.0000000000002" y="70" as="sourcePoint" />
            <mxPoint x="440.60000000000014" y="70" as="targetPoint" />
          </mxGeometry>
        </mxCell>
        <mxCell id="teCfyKoSKIW5aT6tf8ac-144" value="" style="rounded=1;whiteSpace=wrap;html=1;fillColor=#DCDCDC;" vertex="1" parent="teCfyKoSKIW5aT6tf8ac-117">
          <mxGeometry x="470" y="40" width="120" height="100" as="geometry" />
        </mxCell>
        <mxCell id="teCfyKoSKIW5aT6tf8ac-145" value="&lt;span style=&quot;font-size: 14px;&quot;&gt;Homepage&lt;/span&gt;" style="text;html=1;align=center;verticalAlign=middle;whiteSpace=wrap;rounded=0;" vertex="1" parent="teCfyKoSKIW5aT6tf8ac-117">
          <mxGeometry x="479.6999999999998" y="40" width="100" height="30" as="geometry" />
        </mxCell>
        <mxCell id="teCfyKoSKIW5aT6tf8ac-146" value="" style="endArrow=none;html=1;rounded=0;entryX=1;entryY=0.331;entryDx=0;entryDy=0;entryPerimeter=0;exitX=-0.005;exitY=0.331;exitDx=0;exitDy=0;exitPerimeter=0;" edge="1" parent="teCfyKoSKIW5aT6tf8ac-117">
          <mxGeometry width="50" height="50" relative="1" as="geometry">
            <mxPoint x="470" y="70" as="sourcePoint" />
            <mxPoint x="590.5999999999999" y="70" as="targetPoint" />
          </mxGeometry>
        </mxCell>
        <mxCell id="teCfyKoSKIW5aT6tf8ac-147" value="" style="html=1;verticalLabelPosition=bottom;align=center;labelBackgroundColor=#ffffff;verticalAlign=top;strokeWidth=2;strokeColor=#0080F0;shadow=0;dashed=0;shape=mxgraph.ios7.icons.link;" vertex="1" parent="teCfyKoSKIW5aT6tf8ac-117">
          <mxGeometry x="507.1999999999998" y="80" width="46.8" height="50" as="geometry" />
        </mxCell>
        <mxCell id="teCfyKoSKIW5aT6tf8ac-149" value="" style="rounded=1;whiteSpace=wrap;html=1;fillColor=#DCDCDC;" vertex="1" parent="teCfyKoSKIW5aT6tf8ac-117">
          <mxGeometry x="170" y="40" width="120" height="120" as="geometry" />
        </mxCell>
        <UserObject label="&lt;font style=&quot;font-size: 10px;&quot;&gt;Pipeline&lt;/font&gt;" treeRoot="1" id="teCfyKoSKIW5aT6tf8ac-150">
          <mxCell style="whiteSpace=wrap;html=1;align=center;treeFolding=1;treeMoving=1;newEdgeStyle={&quot;edgeStyle&quot;:&quot;elbowEdgeStyle&quot;,&quot;startArrow&quot;:&quot;none&quot;,&quot;endArrow&quot;:&quot;none&quot;};" vertex="1" parent="teCfyKoSKIW5aT6tf8ac-117">
            <mxGeometry x="205" y="130" width="50" height="20" as="geometry" />
          </mxCell>
        </UserObject>
        <mxCell id="teCfyKoSKIW5aT6tf8ac-151" value="&lt;font style=&quot;font-size: 14px;&quot;&gt;Load Pipeline&lt;/font&gt;" style="text;html=1;align=center;verticalAlign=middle;whiteSpace=wrap;rounded=0;" vertex="1" parent="teCfyKoSKIW5aT6tf8ac-117">
          <mxGeometry x="185.20000000000005" y="40" width="90.2" height="30" as="geometry" />
        </mxCell>
        <mxCell id="teCfyKoSKIW5aT6tf8ac-152" value="" style="endArrow=none;html=1;rounded=0;entryX=1;entryY=0.331;entryDx=0;entryDy=0;entryPerimeter=0;exitX=-0.005;exitY=0.331;exitDx=0;exitDy=0;exitPerimeter=0;" edge="1" parent="teCfyKoSKIW5aT6tf8ac-117">
          <mxGeometry width="50" height="50" relative="1" as="geometry">
            <mxPoint x="170.00000000000023" y="70" as="sourcePoint" />
            <mxPoint x="290.60000000000014" y="70" as="targetPoint" />
          </mxGeometry>
        </mxCell>
        <mxCell id="teCfyKoSKIW5aT6tf8ac-153" value="" style="sketch=0;html=1;aspect=fixed;strokeColor=none;shadow=0;fillColor=#3B8DF1;verticalAlign=top;labelPosition=center;verticalLabelPosition=bottom;shape=mxgraph.gcp2.loading_2" vertex="1" parent="teCfyKoSKIW5aT6tf8ac-117">
          <mxGeometry x="211.79999999999995" y="80.11000000000001" width="37" height="39.78" as="geometry" />
        </mxCell>
        <mxCell id="teCfyKoSKIW5aT6tf8ac-154" value="" style="html=1;verticalLabelPosition=bottom;align=center;labelBackgroundColor=#ffffff;verticalAlign=top;strokeWidth=2;strokeColor=#0080F0;shadow=0;dashed=0;shape=mxgraph.ios7.icons.down;" vertex="1" parent="teCfyKoSKIW5aT6tf8ac-117">
          <mxGeometry x="364.75" y="83.63" width="30.5" height="32.75" as="geometry" />
        </mxCell>
        <mxCell id="teCfyKoSKIW5aT6tf8ac-156" value="" style="image;html=1;image=img/lib/clip_art/computers/Database_128x128.png" vertex="1" parent="teCfyKoSKIW5aT6tf8ac-117">
          <mxGeometry x="64.34999999999991" y="82.5" width="31.3" height="35" as="geometry" />
        </mxCell>
        <mxCell id="teCfyKoSKIW5aT6tf8ac-157" value="" style="shape=cross;whiteSpace=wrap;html=1;fillColor=#FFFF03;size=0.20115234375;" vertex="1" parent="teCfyKoSKIW5aT6tf8ac-117">
          <mxGeometry x="82.34999999999991" y="104.99999999999999" width="13.3" height="12.5" as="geometry" />
        </mxCell>
        <mxCell id="teCfyKoSKIW5aT6tf8ac-143" value="" style="html=1;labelBackgroundColor=#ffffff;jettySize=auto;orthogonalLoop=1;fontSize=14;rounded=0;jumpStyle=gap;edgeStyle=orthogonalEdgeStyle;startArrow=oval;endArrow=block;strokeWidth=2;startFill=1;endFill=1;sourcePerimeterSpacing=3;targetPerimeterSpacing=3;exitX=0.996;exitY=0.387;exitDx=0;exitDy=0;exitPerimeter=0;strokeColor=#B0B0B0;" edge="1" parent="WIyWlLk6GJQsqaUBKTNV-1" source="teCfyKoSKIW5aT6tf8ac-137">
          <mxGeometry width="48" height="48" relative="1" as="geometry">
            <mxPoint x="250" y="950" as="sourcePoint" />
            <mxPoint x="1510" y="820" as="targetPoint" />
          </mxGeometry>
        </mxCell>
        <mxCell id="teCfyKoSKIW5aT6tf8ac-155" value="" style="html=1;labelBackgroundColor=#ffffff;jettySize=auto;orthogonalLoop=1;fontSize=14;rounded=0;jumpStyle=gap;edgeStyle=orthogonalEdgeStyle;startArrow=oval;endArrow=block;strokeWidth=2;startFill=1;endFill=1;sourcePerimeterSpacing=3;targetPerimeterSpacing=3;exitX=0.5;exitY=0;exitDx=0;exitDy=0;strokeColor=#B0B0B0;" edge="1" parent="WIyWlLk6GJQsqaUBKTNV-1" source="teCfyKoSKIW5aT6tf8ac-120">
          <mxGeometry width="48" height="48" relative="1" as="geometry">
            <mxPoint x="1130" y="780" as="sourcePoint" />
            <mxPoint x="1160" y="530" as="targetPoint" />
          </mxGeometry>
        </mxCell>
        <mxCell id="teCfyKoSKIW5aT6tf8ac-164" value="" style="html=1;labelBackgroundColor=#ffffff;jettySize=auto;orthogonalLoop=1;fontSize=14;rounded=0;jumpStyle=gap;edgeStyle=orthogonalEdgeStyle;startArrow=oval;endArrow=block;strokeWidth=2;startFill=1;endFill=1;sourcePerimeterSpacing=3;targetPerimeterSpacing=3;strokeColor=#B0B0B0;exitX=1;exitY=0.5;exitDx=0;exitDy=0;" edge="1" parent="WIyWlLk6GJQsqaUBKTNV-1" source="teCfyKoSKIW5aT6tf8ac-83">
          <mxGeometry width="48" height="48" relative="1" as="geometry">
            <mxPoint x="758" y="372" as="sourcePoint" />
            <mxPoint x="1120" y="375" as="targetPoint" />
          </mxGeometry>
        </mxCell>
        <mxCell id="teCfyKoSKIW5aT6tf8ac-165" value="" style="html=1;labelBackgroundColor=#ffffff;jettySize=auto;orthogonalLoop=1;fontSize=14;rounded=0;jumpStyle=gap;edgeStyle=orthogonalEdgeStyle;startArrow=oval;endArrow=block;strokeWidth=2;startFill=1;endFill=1;sourcePerimeterSpacing=3;targetPerimeterSpacing=3;strokeColor=#B0B0B0;exitX=0.5;exitY=1;exitDx=0;exitDy=0;entryX=0.687;entryY=-0.016;entryDx=0;entryDy=0;entryPerimeter=0;" edge="1" parent="WIyWlLk6GJQsqaUBKTNV-1" source="teCfyKoSKIW5aT6tf8ac-94" target="teCfyKoSKIW5aT6tf8ac-117">
          <mxGeometry width="48" height="48" relative="1" as="geometry">
            <mxPoint x="1470" y="552" as="sourcePoint" />
            <mxPoint x="1842" y="550" as="targetPoint" />
          </mxGeometry>
        </mxCell>
        <mxCell id="teCfyKoSKIW5aT6tf8ac-166" value="" style="html=1;labelBackgroundColor=#ffffff;jettySize=auto;orthogonalLoop=1;fontSize=14;rounded=0;jumpStyle=gap;edgeStyle=orthogonalEdgeStyle;startArrow=oval;endArrow=block;strokeWidth=2;startFill=1;endFill=1;sourcePerimeterSpacing=3;targetPerimeterSpacing=3;exitX=1;exitY=0.25;exitDx=0;exitDy=0;strokeColor=#B0B0B0;entryX=-0.002;entryY=0.111;entryDx=0;entryDy=0;entryPerimeter=0;" edge="1" parent="WIyWlLk6GJQsqaUBKTNV-1" source="2YqjTu3L9kQ1eXakfIt_-120" target="2YqjTu3L9kQ1eXakfIt_-127">
          <mxGeometry width="48" height="48" relative="1" as="geometry">
            <mxPoint x="250" y="559.41" as="sourcePoint" />
            <mxPoint x="330" y="130" as="targetPoint" />
          </mxGeometry>
        </mxCell>
        <mxCell id="teCfyKoSKIW5aT6tf8ac-167" value="" style="html=1;labelBackgroundColor=#ffffff;jettySize=auto;orthogonalLoop=1;fontSize=14;rounded=0;jumpStyle=gap;edgeStyle=orthogonalEdgeStyle;startArrow=oval;endArrow=block;strokeWidth=2;startFill=1;endFill=1;sourcePerimeterSpacing=3;targetPerimeterSpacing=3;exitX=0.583;exitY=0.999;exitDx=0;exitDy=0;strokeColor=#B0B0B0;entryX=0.296;entryY=-0.006;entryDx=0;entryDy=0;entryPerimeter=0;exitPerimeter=0;" edge="1" parent="WIyWlLk6GJQsqaUBKTNV-1" source="2YqjTu3L9kQ1eXakfIt_-129" target="2YqjTu3L9kQ1eXakfIt_-8">
          <mxGeometry width="48" height="48" relative="1" as="geometry">
            <mxPoint x="660" y="220" as="sourcePoint" />
            <mxPoint x="889" y="220" as="targetPoint" />
          </mxGeometry>
        </mxCell>
        <mxCell id="teCfyKoSKIW5aT6tf8ac-190" value="" style="html=1;labelBackgroundColor=#ffffff;jettySize=auto;orthogonalLoop=1;fontSize=14;rounded=0;jumpStyle=gap;edgeStyle=orthogonalEdgeStyle;startArrow=oval;endArrow=block;strokeWidth=2;startFill=1;endFill=1;sourcePerimeterSpacing=3;targetPerimeterSpacing=3;exitX=0.987;exitY=0.135;exitDx=0;exitDy=0;exitPerimeter=0;strokeColor=#B0B0B0;" edge="1" parent="WIyWlLk6GJQsqaUBKTNV-1" source="teCfyKoSKIW5aT6tf8ac-185">
          <mxGeometry width="48" height="48" relative="1" as="geometry">
            <mxPoint x="270" y="1300" as="sourcePoint" />
            <mxPoint x="440" y="1195" as="targetPoint" />
          </mxGeometry>
        </mxCell>
        <mxCell id="teCfyKoSKIW5aT6tf8ac-191" value="" style="html=1;labelBackgroundColor=#ffffff;jettySize=auto;orthogonalLoop=1;fontSize=14;rounded=0;jumpStyle=gap;edgeStyle=orthogonalEdgeStyle;startArrow=oval;endArrow=block;strokeWidth=2;startFill=1;endFill=1;sourcePerimeterSpacing=3;targetPerimeterSpacing=3;exitX=0.995;exitY=0.179;exitDx=0;exitDy=0;exitPerimeter=0;strokeColor=#B0B0B0;" edge="1" parent="WIyWlLk6GJQsqaUBKTNV-1" source="teCfyKoSKIW5aT6tf8ac-168">
          <mxGeometry width="48" height="48" relative="1" as="geometry">
            <mxPoint x="240" y="1120" as="sourcePoint" />
            <mxPoint x="440" y="1070" as="targetPoint" />
          </mxGeometry>
        </mxCell>
        <mxCell id="teCfyKoSKIW5aT6tf8ac-192" value="" style="html=1;labelBackgroundColor=#ffffff;jettySize=auto;orthogonalLoop=1;fontSize=14;rounded=0;jumpStyle=gap;edgeStyle=orthogonalEdgeStyle;startArrow=oval;endArrow=block;strokeWidth=2;startFill=1;endFill=1;sourcePerimeterSpacing=3;targetPerimeterSpacing=3;exitX=0.182;exitY=0.998;exitDx=0;exitDy=0;exitPerimeter=0;strokeColor=#B0B0B0;" edge="1" parent="WIyWlLk6GJQsqaUBKTNV-1" source="teCfyKoSKIW5aT6tf8ac-144">
          <mxGeometry width="48" height="48" relative="1" as="geometry">
            <mxPoint x="1550" y="880" as="sourcePoint" />
            <mxPoint x="230" y="990" as="targetPoint" />
            <Array as="points">
              <mxPoint x="1572" y="990" />
            </Array>
          </mxGeometry>
        </mxCell>
      </root>
    </mxGraphModel>
  </diagram>
</mxfile>
